<?xml version="1.0" encoding="utf-8"?>
<!-- Generator: Adobe Illustrator 23.0.1, SVG Export Plug-In . SVG Version: 6.00 Build 0)  -->
<svg version="1.1" id="Calque_1" xmlns="http://www.w3.org/2000/svg" xmlns:xlink="http://www.w3.org/1999/xlink" x="0px" y="0px"
	 viewBox="0 0 1000 1000" style="enable-background:new 0 0 1000 1000;" xml:space="preserve">
<style type="text/css">
	.st0{fill:none;stroke:#000000;stroke-width:25;stroke-miterlimit:10;}
	.st1{fill:none;stroke:#18447D;stroke-width:25;stroke-linecap:round;stroke-linejoin:round;stroke-miterlimit:10;}
	.st2{fill:#18447D;}
</style>
<path class="st0" d="M23.5,486.56"/>
<line class="st1" x1="35.04" y1="681.92" x2="961.74" y2="680.87"/>
<path class="st2" d="M923.68,377.56c0,0-208.04,273.1-207,303.28c-27.34,1.51-72.28,0-72.28,0s63.52-28.67,53.71-67.9
	c-39.23-29.42-107.88-29.42-78.46-107.88c-68.65,0-88.27-29.42-78.46-58.85s-19.62-49.04,39.23-58.85
	c58.85-9.81,68.65,39.23,68.65,39.23s58.85,39.23,107.88-9.81c49.04-49.04,58.85,0,88.27-19.62
	C874.64,377.56,923.68,377.56,923.68,377.56z"/>
<path class="st2" d="M57.55,377.56c0,0,208.04,273.1,207,303.28c27.34,1.51,72.28,0,72.28,0s-63.52-28.67-53.71-67.9
	c39.23-29.42,107.88-29.42,78.46-107.88c68.65,0,88.27-29.42,78.46-58.85c-9.81-29.42,19.62-49.04-39.23-58.85
	c-58.85-9.81-68.65,39.23-68.65,39.23s-58.85,39.23-107.88-9.81s-58.85,0-88.27-19.62S57.55,377.56,57.55,377.56z"/>
<polygon class="st2" points="488.25,583.41 481.48,583.41 376.65,583.41 435.49,681.48 484.53,681.48 494.34,681.48 543.38,681.48 
	602.22,583.41 "/>
<g>
	<path class="st2" d="M500,25c64.14,0,126.34,12.56,184.88,37.32c56.56,23.92,107.36,58.18,150.99,101.81
		c43.63,43.63,77.88,94.43,101.81,150.99C962.44,373.66,975,435.86,975,500s-12.56,126.34-37.32,184.88
		c-23.92,56.56-58.18,107.36-101.81,150.99c-43.63,43.63-94.43,77.88-150.99,101.81C626.34,962.44,564.14,975,500,975
		s-126.34-12.56-184.88-37.32c-56.56-23.92-107.36-58.18-150.99-101.81c-43.63-43.63-77.88-94.43-101.81-150.99
		C37.56,626.34,25,564.14,25,500s12.56-126.34,37.32-184.88c23.92-56.56,58.18-107.36,101.81-150.99
		c43.63-43.63,94.43-77.88,150.99-101.81C373.66,37.56,435.86,25,500,25 M500,0C223.86,0,0,223.86,0,500s223.86,500,500,500
		s500-223.86,500-500S776.14,0,500,0L500,0z"/>
</g>
</svg>
