<?xml version="1.0" encoding="utf-8"?>
<!-- Generator: Adobe Illustrator 23.0.1, SVG Export Plug-In . SVG Version: 6.00 Build 0)  -->
<svg version="1.1" id="Calque_1" xmlns="http://www.w3.org/2000/svg" xmlns:xlink="http://www.w3.org/1999/xlink" x="0px" y="0px"
	 viewBox="0 0 1000 1000" style="enable-background:new 0 0 1000 1000;" xml:space="preserve">
<style type="text/css">
	.st0{fill:#18447D;}
</style>
<g>
	<ellipse class="st0" cx="524.11" cy="745.9" rx="264.5" ry="254.1"/>
	<path class="st0" d="M891,0L677.69,172.13c0,0-8.53,32.79-8.53,49.18s-25.6-8.2-25.6-8.2s-93.86,65.57-119.45,81.97
		c-8.53,16.39,8.53,40.98,17.06,49.18c8.53,16.39,76.79,65.57,85.32,81.97c8.53,16.39,6.87,87.04,6.87,87.04
		s-15.41-5.08-70.61-18.76c21.5-87.46-30.12-84.67-47.18-92.87c-17.06,0-51.19,32.79-68.26,49.18s-15.58,56.24-15.58,56.24
		l-54.99,27.97c0,0,10.85-18.63,10.85-26.83s-8.53-40.98,0-49.18c8.53-8.2,25.6-40.98,34.13-65.57
		c8.53-24.59-17.06-40.98-17.06-40.98s-17.06,0-34.13,16.39c-17.06,16.39,17.06,49.18,17.06,57.38c0,0-2.47,10.57-8.53,16.39
		c-8.53,8.2-8.53,8.2-8.53,8.2s-8.53-8.2-17.06-24.59c-8.53-16.39-8.53-16.39-17.06-32.79c-8.53-16.39,0-24.59,0-32.79
		s8.53-24.59,8.53-32.79c0-8.2,8.53-16.39,25.6-24.59s8.53-24.59,8.53-32.79c0-8.2,0-16.39-8.53-16.39c-0.34,0-2.9-0.33-6.66-1.07
		c-0.08,0-0.08-0.08-0.17-0.08c-10.32-7.13-18.77-15.33-18.77-23.44c0-8.2,8.53-16.39,8.53-32.79v-40.98
		c0-8.2-8.53-16.39,8.53-16.39c17.06,0,8.53-8.2,34.13-8.2c1.62,0,3.16-0.08,4.78-0.16c23.29-1.72,41.38-15.33,41.38-15.33h0.09
		c44.03,38.36,47.61,105.66,47.61,105.66v24.59c0,0,0,8.2,25.6,8.2s110.92-65.57,110.92-65.57s0,0,0-24.59
		c17.06,8.2,51.19,0,51.19,0L891,0z"/>
	<path class="st0" d="M442.37,115.66h-0.09c0,0-18.09,13.61-41.38,15.33c-1.62,0.08-3.16,0.16-4.78,0.16
		c-25.6,0-17.06,8.2-34.13,8.2c-17.06,0-8.53,8.2-8.53,16.39v40.98c0,16.39-8.53,24.59-8.53,32.79c0,8.11,8.45,16.31,18.77,23.44
		c0.09,0,0.09,0.08,0.17,0.08c10.41,7.05-1.88,25.66-1.88,25.66s-17.06,16.39-34.13,16.39s-17.06,8.2-25.6,24.59
		c-8.53,16.39-51.19,8.2-68.26,8.2s-17.06-8.2-17.06-16.39s8.53-8.2,17.06-24.59c8.53-16.39,17.06-16.39,34.13-32.79
		c17.06-16.39,8.53-16.39,17.06-32.79c8.53-16.39-17.06-24.59-17.06-40.98s25.6-24.59,34.13-32.79l25.6-24.59
		c8.53-8.2,8.53-8.2,17.06-16.39c8.53-8.2,34.13-8.2,51.19-8.2s17.06,0,34.13,0C447.32,98.36,442.37,115.66,442.37,115.66z"/>
	<path class="st0" d="M379.06,278.69c-25.6,16.39-59.73,57.38-85.32,65.57s-17.06,32.79-68.26,24.59c-51.19-8.2-68.26-8.2-85.32,0
		c-17.06,8.2-25.6,40.98,0,49.18c25.6,8.2,25.6,16.39,59.73,0c34.13-16.39,51.19-24.59,68.26-24.59c17.06,0,51.19-24.59,59.73-40.98
		s68.26-57.38,68.26-65.57S379.06,278.69,379.06,278.69z"/>
	<path class="st0" d="M736.97,287.74l-8.02,15.4c-0.05,0.09-0.13,0.17-0.22,0.21l-16.03,7.7c-0.37,0.18-0.37,0.68,0,0.85l16.03,7.7
		c0.1,0.05,0.17,0.12,0.22,0.21l8.02,15.4c0.18,0.35,0.7,0.35,0.89,0l8.02-15.4c0.05-0.09,0.13-0.17,0.22-0.21l16.03-7.7
		c0.37-0.18,0.37-0.68,0-0.85l-16.03-7.7c-0.1-0.05-0.17-0.12-0.22-0.21l-8.02-15.4C737.68,287.39,737.16,287.39,736.97,287.74z"/>
	<path class="st0" d="M549.41,49.54l-10.85,20.85c-0.06,0.12-0.17,0.23-0.3,0.29l-21.7,10.42c-0.49,0.24-0.49,0.92,0,1.15
		l21.7,10.42c0.13,0.06,0.24,0.16,0.3,0.29l10.85,20.85c0.25,0.48,0.95,0.48,1.2,0l10.85-20.85c0.06-0.12,0.17-0.23,0.3-0.29
		l21.7-10.42c0.49-0.24,0.49-0.92,0-1.15l-21.7-10.42c-0.13-0.06-0.24-0.16-0.3-0.29l-10.85-20.85
		C550.37,49.06,549.66,49.06,549.41,49.54z"/>
	<path class="st0" d="M216.95,172.31l-5.38,10.33c-0.03,0.06-0.08,0.11-0.15,0.14l-10.75,5.16c-0.25,0.12-0.25,0.45,0,0.57
		l10.75,5.16c0.06,0.03,0.12,0.08,0.15,0.14l5.38,10.33c0.12,0.24,0.47,0.24,0.59,0l5.38-10.33c0.03-0.06,0.08-0.11,0.15-0.14
		l10.75-5.16c0.25-0.12,0.25-0.45,0-0.57l-10.75-5.16c-0.06-0.03-0.12-0.08-0.15-0.14l-5.38-10.33
		C217.43,172.07,217.08,172.07,216.95,172.31z"/>
	<path class="st0" d="M652.1,8.37l-5.38,10.33c-0.03,0.06-0.08,0.11-0.15,0.14l-10.75,5.16c-0.25,0.12-0.25,0.45,0,0.57l10.75,5.16
		c0.06,0.03,0.12,0.08,0.15,0.14l5.38,10.33c0.12,0.24,0.47,0.24,0.59,0l5.38-10.33c0.03-0.06,0.08-0.11,0.15-0.14l10.75-5.16
		c0.25-0.12,0.25-0.45,0-0.57l-10.75-5.16c-0.06-0.03-0.12-0.08-0.15-0.14L652.7,8.37C652.58,8.14,652.23,8.14,652.1,8.37z"/>
</g>
</svg>
