<?xml version="1.0" encoding="utf-8"?>
<!-- Generator: Adobe Illustrator 23.0.1, SVG Export Plug-In . SVG Version: 6.00 Build 0)  -->
<svg version="1.1" id="Calque_1" xmlns="http://www.w3.org/2000/svg" xmlns:xlink="http://www.w3.org/1999/xlink" x="0px" y="0px"
	 viewBox="0 0 1000 1000" style="enable-background:new 0 0 1000 1000;" xml:space="preserve">
<style type="text/css">
	.st0{fill:none;stroke:#18447D;stroke-width:25;stroke-linecap:round;stroke-linejoin:round;stroke-miterlimit:10;}
	.st1{fill:#18447D;}
</style>
<g>
	<path class="st0" d="M16,1000V281.67C28.93,271.26,520.4,11,520.4,11L986,281.67V1000"/>
	<path class="st1" d="M458.13,241.44L458.13,241.44c0-27.86,21.47-50.44,47.95-50.44h10.66c26.48,0,47.95,22.58,47.95,50.44v0
		c0,27.86-21.47,50.44-47.95,50.44h-10.66C479.6,291.87,458.13,269.29,458.13,241.44z"/>
	<path class="st1" d="M600.18,331.78c-2.19-3.89-6.17-6.28-10.47-6.28h-14.37h-63.93h-10.66H490.1h-67.65
		c-4.3,0-8.28,2.39-10.47,6.28l-124.15,221c-4.79,8.53,1.05,19.3,10.47,19.3h51.77c6.72,0,12.16,5.73,12.16,12.79v221
		c0,7.06,5.44,12.79,12.16,12.79h50.27c6.72,0,12.16,5.73,12.16,12.79v120.12c0,7.06,5.44,12.79,12.16,12.79h41.12h10.66h10.66
		h42.62h9.15c6.72,0,12.16-5.73,12.16-12.79V831.44c0-7.06,5.44-12.79,12.16-12.79h41.12h9.15c6.72,0,12.16-5.73,12.16-12.79v-221
		c0-7.06,5.44-12.79,12.16-12.79h51.77h0c9.42,0,15.26-10.77,10.47-19.3L600.18,331.78z"/>
</g>
</svg>
