<?xml version="1.0" encoding="utf-8"?>
<!-- Generator: Adobe Illustrator 23.0.1, SVG Export Plug-In . SVG Version: 6.00 Build 0)  -->
<svg version="1.1" id="Calque_1" xmlns="http://www.w3.org/2000/svg" xmlns:xlink="http://www.w3.org/1999/xlink" x="0px" y="0px"
	 viewBox="0 0 1000 1000" style="enable-background:new 0 0 1000 1000;" xml:space="preserve">
<style type="text/css">
	.st0{fill:#18447D;}
	.st1{fill:none;stroke:#18447D;stroke-width:25;stroke-linecap:round;stroke-linejoin:round;stroke-miterlimit:10;}
</style>
<g>
	<path class="st0" d="M560.19,202.05c37.44-17.64,12.48-35.29,74.88-35.29c51.46,0,62.4,52.93,99.84,35.29S787,161,847.24,184.4
		c60.54,51.35,37.44,88.22,74.88,105.86C959.56,307.9,997,325.55,997,378.48c0,55.79-24.96,35.29-37.44,88.22
		c-9.88,41.9-4.12,61.69-32.25,76.87c-14.89,8.04-32.04,10.92-48.81,8.7c-93.15-12.33-85.5-32.26-181.03,2.65
		c-84.74,17.93-99.84-35.29-137.28-52.93c-31.88-15.02-53.11-10.97-90.91-69.27c-18.29-28.2-20.05-64.1-4.32-93.8
		c4.72-8.91,7.87-13.27,7.87-31c0-39.45-25.83-62.9,18.17-93.9C528.85,187.33,533.71,214.52,560.19,202.05z"/>
</g>
<polyline class="st1" points="733.5,581.17 733.5,989 13,989 13,11 733.5,11 733.5,168.95 "/>
</svg>
