<?xml version="1.0" encoding="utf-8"?>
<!-- Generator: Adobe Illustrator 23.0.1, SVG Export Plug-In . SVG Version: 6.00 Build 0)  -->
<svg version="1.1" xmlns="http://www.w3.org/2000/svg" xmlns:xlink="http://www.w3.org/1999/xlink" x="0px" y="0px"
	 viewBox="0 0 1000 1000" style="enable-background:new 0 0 1000 1000;" xml:space="preserve">
<style type="text/css">
	.st0{fill:#18447D;}
	.st1{fill:none;stroke:#18447D;stroke-width:25;stroke-linecap:round;stroke-linejoin:round;stroke-miterlimit:10;}
</style>
<g id="Calque_1">
	<g>
		<path class="st0" d="M496.89,543.91c0.48-1.04,0.99-2.18,1.55-3.42"/>
		<path class="st0" d="M498.44,540.49c3.75-8.26,9.26-20.55,14.79-33.45"/>
		<path class="st1" d="M467.92,574.44c10.53-24.99,65.74-119.47,63.81-124.28c-3.69-9.2-71.62-227.51-19.6-269.74
			c52.03-42.24,67.55,143.72,79.72,149.51c12.18,5.79,152.72-306.87,152.72-306.87s112.53-87.88-19.52,221.38
			c16.97-6.81,142.4-185.29,163.06-182.91c20.67,2.39,70.47,3.75-115.46,227.87c12.18,5.78,178.94-167.93,178.94-167.93l0,0
			c0,0,95.93-6.47-128.75,243.87C835.02,371.13,949,242.03,982.6,247.83c33.6,5.8-137.98,205.27-263.21,314.14"/>
	</g>
</g>
<g id="Calque_2">
	<path class="st0" d="M573.52,516.04c53.72,89.16-174.78,375.05-190.87,368.34c-15.86-6.61,18.45-74.54,19.47-76.54
		c-1.89,2.56-95.56,129.64-124.01,131.76C249.39,941.74,324,817.56,345.8,784.3c21.81-33.25-156.13,217.23-184.86,219.37
		c-28.74,2.14,41.29-109.83,94.1-200.76c52.79-90.92-20.69,5.5-88.45,61.93c-58.2,48.49-87.32,34.18-65.51,0.93
		c11.38-17.36,112.17-179.86,223.38-285.04c60.76-17.52,130.51-47.92,154.14-87.7c0.54-0.11,1.1-0.21,1.66-0.29
		C525.16,485.26,561,495.27,573.52,516.04z"/>
	<path class="st0" d="M508.75,444.81c0,0,7.12,34.93,5.84,43.81c-0.67,1.34-4.03,13.9-4.81,15.2
		c-23.62,39.78-97.66,65.2-158.43,82.72c-51.7,14.9-96.87,20.48-101.64,14.56c-11.92-14.79,35.67-41.52,37.16-42.36
		c-2.37,0.64-117,31.97-142.12,15.43c-25.38-16.74,72.07-58.11,99.75-68.03c27.68-9.91-192.6,56.11-217.98,39.39
		c-25.38-16.74,64.87-52.3,134.64-83.76s-19.33-9.21-92.86-11.91c-63.16-2.32-84.49-31.05-56.81-40.96
		c15.95-5.72,173.04-68.69,307.06-61.64C417.1,352.45,499.14,403.34,508.75,444.81z"/>
</g>
</svg>
