<?xml version="1.0" encoding="utf-8"?>
<!-- Generator: Adobe Illustrator 23.0.1, SVG Export Plug-In . SVG Version: 6.00 Build 0)  -->
<svg version="1.1" id="Calque_1" xmlns="http://www.w3.org/2000/svg" xmlns:xlink="http://www.w3.org/1999/xlink" x="0px" y="0px"
	 viewBox="0 0 1000 1000" style="enable-background:new 0 0 1000 1000;" xml:space="preserve">
<style type="text/css">
	.st0{fill:#18447D;}
	.st1{fill:none;}
</style>
<path d="M532.59,127.67"/>
<g>
	<path class="st0" d="M855.86,433.4l-0.11-2.9V230.61c0-9.38,2.18-18.66,6.38-26.58c8.56-16,29.88-47.74,29.88-83.69
		C892,68.73,870.24,0,833.99,0c-51.27,0-72.52,77.33-72.52,120.34s27.7,64.17,41.92,83.26c5.8,7.83,9.06,17.55,9.5,27.95
		c1.45,37.42,4.93,127.3,5.15,156.2c0.07,2.41,0.07,4.3,0,5.76v0.86c0,1.29-0.82,14.6-0.97,14.86l0,0"/>
	<path class="st0" d="M847.04,413.56"/>
	<path d="M819.48,756.84"/>
	<path class="st0" d="M855.74,679.43"/>
	<path class="st0" d="M174.07,774.04"/>
	<path class="st0" d="M210.33,851.45"/>
	<path class="st0" d="M166.55,433.56c0,0-1.19-7.35-1.19-7.57c0,0,0.07-5.23,0-8.17c-0.07-4.79-0.15-10.89-0.29-18.07
		c-0.8-45.95-3.63-134.04-4.86-173.89c-0.44-12.74-9.85-17.63-17.2-25.25c-31.4-32.57-53.68-106.82-35.45-169.34
		c6.33-21.71,55.65,128.03,52,110.76C156.42,127.18,152.37,0.34,172.39,0c19.16-0.33,26.56,127.47,23.44,142.02
		C191.96,160,235.81-8.7,245.31,10.42c23.29,46.9-1.01,153.71-17.22,179.77c-5.39,8.67-25.02,23.04-25.02,34.58l-0.09,177.06"/>
	<polyline class="st0" points="212.14,784.71 217.58,997.75 174.07,997.75 169.36,701.79 	"/>
	<polyline class="st0" points="858.71,668.24 862.99,997.75 819.48,997.75 818.83,761.14 	"/>
	<line class="st0" x1="855.86" y1="431.59" x2="855.74" y2="422.76"/>
	<polyline class="st0" points="817.89,402.29 817.89,396.53 817.89,396.44 817.81,375.89 	"/>
</g>
<path class="st0" d="M875.74,463.17c-18.33-59.88-94.84-180.57-225.66-135.36c-75.57,26.12-118.32,63.17-142,92.98
	c-23.85-29.62-66.47-66.11-141.15-91.92c-130.82-45.22-207.33,75.47-225.66,135.36c-29.08,95.01,0,256.96,78,345.79
	c45,51.24,103.24,104.69,193.86,149.1c13.27,6.5,74.87,33.8,94.38,40.88l1.97-1.06c19.51-7.09,81.11-34.38,94.38-40.88
	c90.62-44.41,148.86-97.86,193.86-149.1C875.74,720.13,904.82,558.18,875.74,463.17z"/>
<path class="st1" d="M473.72,963.66"/>
<path class="st1" d="M470.16,420.17"/>
</svg>
