<svg xmlns="http://www.w3.org/2000/svg" viewBox="0 0 398 685.01"><defs><style>.cls-1{fill:#3b6294;}.cls-2{fill:#fff;}.cls-3{fill:#f3f0f3;}.cls-4{fill:#e2dee2;}.cls-5{fill:#ee6161;}.cls-6{fill:#e94444;}</style></defs><title>formetitre</title><g id="Calque_2" data-name="Calque 2"><g id="Calque_3" data-name="Calque 3"><path class="cls-1" d="M0,683.5c5.39,1.44,13,2.52,21,0,22.31-7,30.15-36.51,34-51,11.36-42.73,2.4-82.14-4-109-7-29.23-13.74-40.31-15-69-1.19-27.1,3.77-41.94,8-51,8.17-17.49,16-18.44,25-32,19.17-28.71,4-54,8-112,1.61-23.5,3-43.49,12-66,16.12-40.25,54.7-83.56,108-95,8.11-1.74,52.65-10.49,95,10,16.57,8,24.54,16.51,42,19,25.53,3.64,48.52-8.83,64-20v-78c-30-20.23-54-23.33-69-23-5,.11-14.38,1.74-33,5-42.68,7.47-48.93,10.19-64,12-23,2.76-39.28.13-71-5C103.52,9.2,96.81-2.58,72,.5c-18,2.23-43.59,12-72,49Z"/><path class="cls-2" d="M75.77,40.2H67.71V35.45h22V40.2H81.61V60.65H75.77Z"/><path class="cls-2" d="M92.8,35.45h5.83v25.2H92.8Z"/><path class="cls-2" d="M121.33,36.56a9,9,0,0,1,3.8,12.87,8.51,8.51,0,0,1-3.8,3.17,14.2,14.2,0,0,1-5.81,1.1h-5.08v6.95h-5.83V35.45h10.91A14,14,0,0,1,121.33,36.56Zm-2.14,11.25a4,4,0,0,0,1.37-3.22,4,4,0,0,0-1.37-3.26,6.15,6.15,0,0,0-4-1.13h-4.75V49h4.75A6.1,6.1,0,0,0,119.19,47.81Z"/><path class="cls-2" d="M133.46,60.27A13.44,13.44,0,0,1,129,58.16l2-4.39a13.45,13.45,0,0,0,3.85,1.91,14.51,14.51,0,0,0,4.47.72,7.15,7.15,0,0,0,3.67-.74,2.24,2.24,0,0,0,1.19-2,1.89,1.89,0,0,0-.71-1.5,5.31,5.31,0,0,0-1.79-1c-.74-.24-1.73-.5-3-.79A40.63,40.63,0,0,1,134,49.09a7.61,7.61,0,0,1-3.15-2.2,5.89,5.89,0,0,1-1.31-4,7,7,0,0,1,1.18-4,8,8,0,0,1,3.59-2.82A14.49,14.49,0,0,1,140.1,35a19.62,19.62,0,0,1,4.72.58,13.74,13.74,0,0,1,4,1.66l-1.8,4.42a14,14,0,0,0-7-2,6.54,6.54,0,0,0-3.62.8,2.4,2.4,0,0,0-1.17,2.08,2,2,0,0,0,1.35,1.93,21.29,21.29,0,0,0,4.12,1.24,41.47,41.47,0,0,1,4.72,1.37,8,8,0,0,1,3.15,2.16,5.82,5.82,0,0,1,1.31,4,6.9,6.9,0,0,1-1.2,3.94A8.07,8.07,0,0,1,145.11,60a14.71,14.71,0,0,1-5.87,1A20.64,20.64,0,0,1,133.46,60.27Z"/><path class="cls-2" d="M164.12,35.45h11.44A16.16,16.16,0,0,1,182.82,37a11.76,11.76,0,0,1,4.89,4.41,12.38,12.38,0,0,1,1.75,6.63,12.35,12.35,0,0,1-1.75,6.62,11.63,11.63,0,0,1-4.89,4.41,16.16,16.16,0,0,1-7.26,1.57H164.12Zm11.16,20.41a8.44,8.44,0,0,0,6-2.11,7.42,7.42,0,0,0,2.25-5.7,7.44,7.44,0,0,0-2.25-5.71,8.49,8.49,0,0,0-6-2.11H170V55.86Z"/><path class="cls-2" d="M213.36,56v4.68H193.85V35.45H212.9v4.68H199.65V45.6h11.7v4.53h-11.7V56Z"/><path class="cls-2" d="M251.31,35.45v25.2h-4.79L234,45.35v15.3H228.2V35.45H233l12.53,15.3V35.45Z"/><path class="cls-2" d="M262.41,59.39a12.85,12.85,0,0,1,0-22.68,15.53,15.53,0,0,1,14.13,0,12.86,12.86,0,0,1,0,22.68,14.66,14.66,0,0,1-7.05,1.69A14.81,14.81,0,0,1,262.41,59.39Zm11.11-4.31a7.25,7.25,0,0,0,2.82-2.86,9,9,0,0,0,0-8.35A7.32,7.32,0,0,0,273.52,41a8.4,8.4,0,0,0-8.06,0,7.34,7.34,0,0,0-2.83,2.86,9,9,0,0,0,0,8.35,7.27,7.27,0,0,0,2.83,2.86,8.4,8.4,0,0,0,8.06,0Z"/><path class="cls-2" d="M307.18,56v4.68H287.67V35.45h19v4.68H293.46V45.6h11.7v4.53h-11.7V56ZM291.77,32.51a2.56,2.56,0,0,1,0-3.56,2.47,2.47,0,0,1,1.8-.7,2.48,2.48,0,1,1,0,5A2.47,2.47,0,0,1,291.77,32.51Zm7.29,0a2.48,2.48,0,0,1,1.78-4.26,2.47,2.47,0,0,1,1.8.7,2.56,2.56,0,0,1,0,3.56,2.47,2.47,0,0,1-1.8.7A2.4,2.4,0,0,1,299.06,32.51Z"/><path class="cls-2" d="M311.82,35.45h5.83V55.89h12.64v4.76H311.82Z"/><path class="cls-3" d="M260.2,37.07c-.06.24-.37.35-.51.53s-.18.52-.38.64-.5,0-.73,0-.48.25-.72.18-.35-.37-.53-.51-.51-.17-.63-.37,0-.5,0-.74-.25-.48-.19-.71.38-.35.51-.53.18-.52.38-.64.5,0,.74,0,.47-.24.71-.18.35.37.53.51.52.17.63.37,0,.51,0,.74.24.48.18.71Z"/><path class="cls-4" d="M260.2,37.07c-.06.24-.37.35-.51.53s-.18.52-.38.64-.5,0-.73,0-.48.25-.72.18-.34-.35-.51-.49c.19,0,.38-.17.55-.19s.54.1.74,0,.23-.44.37-.63.45-.29.52-.53-.16-.49-.19-.71.06-.42,0-.61c.19.14.52.17.63.37s0,.51,0,.74S260.26,36.84,260.2,37.07Z"/><path class="cls-5" d="M245.73,29s.3-.3.61-.6a6.53,6.53,0,0,1,4.44-1.81h.13A8.18,8.18,0,0,1,258,30.47a6,6,0,0,1,.73,4.29l-.33,1.29a.53.53,0,0,1-.71.35,6.19,6.19,0,0,1-3-2.54A1.89,1.89,0,0,0,254,33c-.6-.3-1.2-.57-1.8-.86l-5.37-2.58L245.73,29Z"/><path class="cls-6" d="M258.37,36.05a.53.53,0,0,1-.71.35l-.37-.17a.51.51,0,0,0,.37-.37l.33-1.29a6,6,0,0,0-.73-4.29,7.56,7.56,0,0,0-4.47-3.43A7.72,7.72,0,0,1,258,30.47a6,6,0,0,1,.73,4.29Z"/><path class="cls-5" d="M243.53,35.61l1.21-4.56A5.81,5.81,0,1,1,256,34l-1.21,4.56Z"/><path class="cls-6" d="M256,34l-1.21,4.56-.67-.18,1.21-4.56a5.81,5.81,0,0,0-3.8-7l.34.08A5.81,5.81,0,0,1,256,34Z"/><path class="cls-3" d="M255,41.05a1,1,0,0,1-1.26.75h0a1.33,1.33,0,0,1-.88-.72.12.12,0,0,0-.17,0,1.43,1.43,0,0,1-1.13.19,1.42,1.42,0,0,1-.88-.72.12.12,0,0,0-.17,0,1.37,1.37,0,0,1-1.12.18,1.35,1.35,0,0,1-.88-.71.11.11,0,0,0-.17,0,1.41,1.41,0,0,1-1.12.19,1.39,1.39,0,0,1-.88-.72.12.12,0,0,0-.17,0,1.37,1.37,0,0,1-1.12.18,1.39,1.39,0,0,1-.89-.71.11.11,0,0,0-.17-.05,1.4,1.4,0,0,1-1.12.19h0a1,1,0,0,1-.72-1.27l.69-2.62a1,1,0,0,1,1.26-.74h0A1.33,1.33,0,0,1,245,35a.12.12,0,0,0,.17,0,1.41,1.41,0,0,1,1.12-.19,1.39,1.39,0,0,1,.88.72.11.11,0,0,0,.17.05,1.37,1.37,0,0,1,2,.53.12.12,0,0,0,.17,0A1.43,1.43,0,0,1,250.6,36a1.42,1.42,0,0,1,.88.72.12.12,0,0,0,.17.05,1.37,1.37,0,0,1,2,.53.12.12,0,0,0,.17,0,1.41,1.41,0,0,1,1.12-.19h0a1,1,0,0,1,.73,1.27L255,41.05Z"/><path class="cls-4" d="M255.68,38.44,255,41.05a1,1,0,0,1-1.26.75h0a1.35,1.35,0,0,1-.35-.14,1,1,0,0,0,.94-.78l.69-2.61a1,1,0,0,0-.43-1.14,1.55,1.55,0,0,1,.37,0h0a1,1,0,0,1,.73,1.27Z"/></g></g></svg>