<svg xmlns="http://www.w3.org/2000/svg" viewBox="0 0 398 685.01"><defs><style>.cls-1{fill:#3b6294;}</style></defs><title>shape5</title><g id="Calque_2" data-name="Calque 2"><g id="Calque_3" data-name="Calque 3"><g id="Calque_2-2" data-name="Calque 2"><path class="cls-1" d="M0,683.5c5.39,1.44,13,2.52,21,0,22.31-7,30.15-36.51,34-51,11.36-42.73,2.4-82.14-4-109-7-29.23-13.74-40.31-15-69-1.19-27.1,3.77-41.94,8-51,8.17-17.49,16-18.44,25-32,19.17-28.71,4-54,8-112,1.61-23.5,3-43.49,12-66,16.12-40.25,54.7-83.56,108-95,8.11-1.74,52.65-10.49,95,10,16.57,8,24.54,16.51,42,19,25.53,3.64,48.52-8.83,64-20v-78c-30-20.23-54-23.33-69-23-5,.11-14.38,1.74-33,5-42.68,7.47-48.93,10.19-64,12-23,2.76-39.28.13-71-5C103.52,9.2,96.81-2.58,72,.5c-18,2.23-43.59,12-72,49Z"/></g></g></g></svg>