<svg xmlns="http://www.w3.org/2000/svg" viewBox="0 0 262.58 34.45"><defs><style>.cls-1{fill:#fff;}.cls-2{fill:#f3f0f3;}.cls-3{fill:#e2dee2;}.cls-4{fill:#ee6161;}.cls-5{fill:#e94444;}</style></defs><title>Fichier 13</title><g id="Calque_2" data-name="Calque 2"><g id="Calque_3" data-name="Calque 3"><path class="cls-1" d="M8.06,13.57H0V8.82H22v4.75H13.9V34H8.06Z"/><path class="cls-1" d="M25.09,8.82h5.83V34H25.09Z"/><path class="cls-1" d="M53.62,9.94a8.33,8.33,0,0,1,5.13,8,8.76,8.76,0,0,1-1.33,4.85A8.52,8.52,0,0,1,53.62,26a14.21,14.21,0,0,1-5.81,1.09H42.73v7H36.9V8.82H47.81A13.88,13.88,0,0,1,53.62,9.94ZM51.48,21.19A4,4,0,0,0,52.85,18a4,4,0,0,0-1.37-3.25,6.1,6.1,0,0,0-4-1.14H42.73v8.75h4.75A6.15,6.15,0,0,0,51.48,21.19Z"/><path class="cls-1" d="M65.75,33.64a13.64,13.64,0,0,1-4.48-2.1l2-4.39a13.44,13.44,0,0,0,3.85,1.9,14.51,14.51,0,0,0,4.47.72A7.16,7.16,0,0,0,75.24,29a2.25,2.25,0,0,0,1.19-2,1.9,1.9,0,0,0-.7-1.49,5.29,5.29,0,0,0-1.8-.95c-.74-.24-1.73-.51-3-.8a38.42,38.42,0,0,1-4.72-1.37,7.56,7.56,0,0,1-3.15-2.19,5.91,5.91,0,0,1-1.31-4,7,7,0,0,1,1.18-4,8.06,8.06,0,0,1,3.59-2.83,14.68,14.68,0,0,1,5.85-1A19.53,19.53,0,0,1,77.11,9a14,14,0,0,1,4,1.66l-1.8,4.43a14,14,0,0,0-7-2,6.54,6.54,0,0,0-3.62.79A2.43,2.43,0,0,0,67.57,16a2.05,2.05,0,0,0,1.35,1.93A21.29,21.29,0,0,0,73,19.12a39,39,0,0,1,4.72,1.37,7.75,7.75,0,0,1,3.15,2.16,5.8,5.8,0,0,1,1.31,4A6.88,6.88,0,0,1,81,30.58a8.15,8.15,0,0,1-3.62,2.83,14.71,14.71,0,0,1-5.87,1A20.64,20.64,0,0,1,65.75,33.64Z"/><path class="cls-1" d="M96.41,8.82h11.44a16,16,0,0,1,7.26,1.57A11.63,11.63,0,0,1,120,14.8a12.32,12.32,0,0,1,1.75,6.62A12.38,12.38,0,0,1,120,28.05a11.76,11.76,0,0,1-4.89,4.41A16.16,16.16,0,0,1,107.85,34H96.41Zm11.16,20.41a8.48,8.48,0,0,0,6-2.1,7.46,7.46,0,0,0,2.25-5.71,7.46,7.46,0,0,0-2.25-5.71,8.48,8.48,0,0,0-6-2.1h-5.33V29.23Z"/><path class="cls-1" d="M145.65,29.34V34H126.14V8.82h19V13.5H131.94V19h11.7v4.54h-11.7v5.83Z"/><path class="cls-1" d="M183.6,8.82V34h-4.79l-12.56-15.3V34h-5.76V8.82h4.82l12.53,15.3V8.82Z"/><path class="cls-1" d="M194.7,32.76a12.58,12.58,0,0,1-4.93-4.66A12.72,12.72,0,0,1,188,21.42a12.72,12.72,0,0,1,1.78-6.68,12.58,12.58,0,0,1,4.93-4.66,15.61,15.61,0,0,1,14.13,0,12.81,12.81,0,0,1,4.94,4.66,12.64,12.64,0,0,1,1.8,6.68,12.64,12.64,0,0,1-1.8,6.68,12.81,12.81,0,0,1-4.94,4.66,15.61,15.61,0,0,1-14.13,0Zm11.11-4.3a7.41,7.41,0,0,0,2.83-2.86,8.48,8.48,0,0,0,1-4.18,8.42,8.42,0,0,0-1-4.17,7.43,7.43,0,0,0-2.83-2.87,8.47,8.47,0,0,0-8.06,0,7.37,7.37,0,0,0-2.83,2.87,8.42,8.42,0,0,0-1,4.17,8.49,8.49,0,0,0,1,4.18,7.34,7.34,0,0,0,2.83,2.86,8.4,8.4,0,0,0,8.06,0Z"/><path class="cls-1" d="M239.47,29.34V34H220V8.82h19V13.5H225.75V19h11.7v4.54h-11.7v5.83ZM224.06,5.89a2.38,2.38,0,0,1-.72-1.78,2.39,2.39,0,0,1,.72-1.79,2.51,2.51,0,0,1,1.8-.7,2.41,2.41,0,0,1,2.49,2.49,2.41,2.41,0,0,1-2.49,2.48A2.47,2.47,0,0,1,224.06,5.89Zm7.29,0a2.4,2.4,0,0,1-.7-1.78,2.41,2.41,0,0,1,.7-1.79,2.44,2.44,0,0,1,1.78-.7,2.51,2.51,0,0,1,1.8.7,2.39,2.39,0,0,1,.72,1.79,2.38,2.38,0,0,1-.72,1.78,2.47,2.47,0,0,1-1.8.7A2.4,2.4,0,0,1,231.35,5.89Z"/><path class="cls-1" d="M244.11,8.82h5.83V29.27h12.64V34H244.11Z"/><path class="cls-2" d="M192.49,10.45c-.06.24-.37.35-.51.53s-.18.52-.38.63-.5,0-.73,0-.48.24-.72.18-.35-.37-.53-.51-.51-.18-.63-.38,0-.5,0-.73-.25-.48-.19-.72.38-.35.51-.53.18-.51.38-.63.5,0,.74,0,.47-.25.71-.19.35.38.53.51.52.18.63.38,0,.5,0,.74.24.47.18.71Z"/><path class="cls-3" d="M192.49,10.45c-.06.23-.37.35-.51.53s-.18.52-.38.63-.5,0-.73,0-.48.24-.72.18-.34-.35-.51-.5c.19,0,.38-.16.55-.19s.54.11.74,0,.23-.45.37-.63.45-.3.52-.53-.16-.49-.19-.72.06-.41,0-.6c.19.14.52.17.63.37s0,.5,0,.74S192.55,10.21,192.49,10.45Z"/><path class="cls-4" d="M178,2.4l.61-.59A6.44,6.44,0,0,1,183.07,0h.13a8.21,8.21,0,0,1,7.06,3.84A6,6,0,0,1,191,8.13l-.33,1.29a.52.52,0,0,1-.71.35,6.12,6.12,0,0,1-3-2.53,1.89,1.89,0,0,0-.67-.88c-.6-.3-1.2-.58-1.8-.87l-5.37-2.58L178,2.4Z"/><path class="cls-5" d="M190.66,9.42a.52.52,0,0,1-.71.35l-.37-.16a.54.54,0,0,0,.37-.38l.33-1.29a6,6,0,0,0-.73-4.29A7.5,7.5,0,0,0,185.08.23a7.74,7.74,0,0,1,5.18,3.61A6,6,0,0,1,191,8.13Z"/><path class="cls-4" d="M175.82,9,177,4.42a5.81,5.81,0,1,1,11.23,3L187.05,12Z"/><path class="cls-5" d="M188.26,7.39,187.05,12l-.67-.18,1.21-4.57a5.82,5.82,0,0,0-3.8-7l.34.08a5.83,5.83,0,0,1,4.13,7.1Z"/><path class="cls-2" d="M187.28,14.42a1,1,0,0,1-1.26.75h0a1.39,1.39,0,0,1-.88-.72.13.13,0,0,0-.17,0,1.36,1.36,0,0,1-1.13.19,1.37,1.37,0,0,1-.88-.71.11.11,0,0,0-.17-.05,1.41,1.41,0,0,1-1.12.19,1.39,1.39,0,0,1-.88-.72.12.12,0,0,0-.17,0,1.37,1.37,0,0,1-1.12.18,1.35,1.35,0,0,1-.88-.71.11.11,0,0,0-.17-.05,1.41,1.41,0,0,1-1.12.19,1.44,1.44,0,0,1-.89-.72.12.12,0,0,0-.17,0,1.36,1.36,0,0,1-1.12.18h0a1,1,0,0,1-.72-1.27l.69-2.61a1,1,0,0,1,1.26-.75h0a1.39,1.39,0,0,1,.88.72.11.11,0,0,0,.17,0,1.37,1.37,0,0,1,2,.53.12.12,0,0,0,.17,0,1.41,1.41,0,0,1,1.12-.19,1.39,1.39,0,0,1,.88.72.13.13,0,0,0,.18.05,1.37,1.37,0,0,1,2,.53.12.12,0,0,0,.17,0,1.41,1.41,0,0,1,1.12-.19,1.39,1.39,0,0,1,.88.72.12.12,0,0,0,.17.05,1.33,1.33,0,0,1,1.12-.19h0a1,1,0,0,1,.73,1.27l-.69,2.61Z"/><path class="cls-3" d="M188,11.81l-.69,2.61a1,1,0,0,1-1.26.75h0a1.37,1.37,0,0,1-.35-.15,1,1,0,0,0,.94-.77l.69-2.62a1,1,0,0,0-.43-1.14,1.57,1.57,0,0,1,.37,0h0a1,1,0,0,1,.73,1.27Z"/></g></g></svg>