<svg id="Calque_1" data-name="Calque 1" xmlns="http://www.w3.org/2000/svg" viewBox="0 0 1165.01 239.85"><defs><style>.cls-1{font-size:158.03px;fill:#fff;font-family:Montserrat-ExtraBold, Montserrat;font-weight:800;}.cls-2{fill:#f3f0f3;}.cls-3{fill:#e2dee2;}.cls-4{fill:#ee6161;}.cls-5{fill:#e94444;}</style></defs><title>titre</title><text class="cls-1" transform="translate(0.01 197.16) rotate(0.02)">TIPS DE NOEL</text><path class="cls-2" d="M1253.29,138.16c-.4,1.65-2.94,2.38-4,3.64s-1.18,3.61-2.81,4.4-4.2-.24-6.16-.07-3.87,1.64-5.87,1.15-3.09-2.7-4.69-3.72-4.4-1.33-5.49-2.78-.09-3.53-.47-5.2-2.29-3.43-1.89-5.08,2.94-2.38,4-3.63,1.18-3.62,2.81-4.41,4.2.24,6.16.07,3.87-1.64,5.87-1.15,3.09,2.71,4.68,3.72,4.41,1.33,5.5,2.78.08,3.54.47,5.21,2.29,3.42,1.89,5.07Z" transform="translate(-390 -62.41)"/><path class="cls-3" d="M1253.29,138.16c-.4,1.65-3,2.38-4,3.64s-1.18,3.61-2.81,4.4-4.2-.24-6.16-.07-3.87,1.64-5.87,1.16-3-2.57-4.53-3.63c1.54-.18,3.06-1.09,4.52-1.22,2-.18,4.52.85,6.16.07s1.7-3.1,2.81-4.41,3.62-2,4-3.63-1.52-3.47-1.89-5.08c-.31-1.33.27-2.93,0-4.26,1.66,1,4.38,1.31,5.46,2.75s.08,3.54.47,5.21S1253.69,136.51,1253.29,138.16Z" transform="translate(-390 -62.41)"/><path class="cls-4" d="M1128.24,78.36c-.08,0,2.34-2,4.81-4.09,9.45-7.82,22.39-12.16,36.23-11.84l1.1,0c23.19.91,48.1,10.71,61,28.57,6.47,9,10.61,20.54,8.27,30.45l-2.14,9c-.51,2.16-3.22,3.26-5.75,2.34-10.6-3.88-20.45-10.13-26.59-18.53-1.69-2.31-3.05-5-6.08-6.35-5.12-2.23-10.33-4.32-15.49-6.48l-46.17-19.32-9.15-3.83Z" transform="translate(-390 -62.41)"/><path class="cls-5" d="M1237.47,130.53c-.51,2.17-3.22,3.26-5.75,2.33-1.07-.39-2.13-.8-3.18-1.24a3.59,3.59,0,0,0,2.9-2.56l2.14-9c2.34-9.91-1.8-21.48-8.27-30.45-8.84-12.27-23.36-20.74-39.1-25.13,18,3.78,35.17,12.78,45.14,26.6,6.46,9,10.6,20.54,8.26,30.45Z" transform="translate(-390 -62.41)"/><path class="cls-4" d="M1113.17,124.41l7.8-32c5.3-21.73,31-34.14,57.31-27.71s43.41,29.25,38.1,51l-7.8,32Z" transform="translate(-390 -62.41)"/><path class="cls-5" d="M1216.38,115.7l-7.8,32-5.71-1.39,7.8-32c2.65-10.87-.29-22-7.18-31.24a54.08,54.08,0,0,0-28.08-19c.95.18,1.91.39,2.87.63,13.17,3.21,24,10.52,30.92,19.75s9.83,20.37,7.18,31.24Z" transform="translate(-390 -62.41)"/><path class="cls-2" d="M1211.69,165.17c-.94,3.85-5.46,6.12-10.14,5l-.1,0a12.85,12.85,0,0,1-7.73-5.25,1.13,1.13,0,0,0-1.45-.35,13.38,13.38,0,0,1-17-4.16,1.15,1.15,0,0,0-1.45-.35,13.36,13.36,0,0,1-17-4.15,1.14,1.14,0,0,0-1.45-.35,13.38,13.38,0,0,1-17-4.15,1.13,1.13,0,0,0-1.44-.36,13.37,13.37,0,0,1-17-4.15,1.14,1.14,0,0,0-1.45-.35,12.84,12.84,0,0,1-9.28,1.1l-.1,0c-4.66-1.17-7.62-5.26-6.68-9.11l4.47-18.32c.94-3.85,5.45-6.12,10.13-5l.1,0a12.82,12.82,0,0,1,7.73,5.25,1.14,1.14,0,0,0,1.45.35,13.36,13.36,0,0,1,17,4.15,1.14,1.14,0,0,0,1.45.36,13.38,13.38,0,0,1,17,4.15,1.13,1.13,0,0,0,1.44.35,13.37,13.37,0,0,1,17,4.15,1.14,1.14,0,0,0,1.45.36,13.36,13.36,0,0,1,17,4.15,1.14,1.14,0,0,0,1.45.35,12.84,12.84,0,0,1,9.28-1.1l.1,0c4.66,1.17,7.62,5.26,6.68,9.11l-4.46,18.32Z" transform="translate(-390 -62.41)"/><path class="cls-3" d="M1216.16,146.85l-4.47,18.32c-.94,3.85-5.46,6.12-10.14,5l-.1,0a14.18,14.18,0,0,1-3-1.09c3.63-.1,6.74-2.18,7.5-5.29l4.47-18.32c.76-3.12-1-6.39-4.23-8.15a13.8,13.8,0,0,1,3.15.4l.1,0c4.66,1.17,7.63,5.26,6.69,9.11Z" transform="translate(-390 -62.41)"/></svg>