<svg  id="Calque_1" data-name="Calque 1" xmlns="http://www.w3.org/2000/svg" viewBox="0 0 909.86 232.39"><defs><style>.cls-1{fill:#fff;}.cls-2{font-size:12px;font-family:MyriadPro-Regular, Myriad Pro;}.cls-3{letter-spacing:-0.01em;}.cls-4{letter-spacing:-0.01em;}.cls-5{letter-spacing:0em;}</style></defs><title>Monoliso</title><path d="M117.21,423.05l.75-.2h3.38c1,0,2.45-.94,4.38-2.84q.24-.19,6.66-1.92l.5-.41c1.17-.81,2-1.35,2.51-1.62h2.39a9.55,9.55,0,0,0,2-1,33,33,0,0,1,7.45-2.18,42.39,42.39,0,0,0,7.44-2q.75-.19,5.49-.6l3.5-.51,2.75.2q6.62,0,9.49,7.1a2.63,2.63,0,0,0,.63,1.26,2.74,2.74,0,0,1,.62,1.27q0,4.26-5.12,8.92l-1.75,3.75A6.54,6.54,0,0,1,169,433.8a13.77,13.77,0,0,0-2.31,3.09q-1,1.77-5.37,5.32c-.5.81-1.21,2.07-2.13,3.8a12.49,12.49,0,0,1-2.31,3.39,60.39,60.39,0,0,0-4.87,6.08c-2.62,3.51-3.94,5.57-3.94,6.18a5.87,5.87,0,0,0-2.56,3.75,13.12,13.12,0,0,1-2.56,5l-.25.71q4-1.12,4-3.55c0-.2.7-.71,2.12-1.52l1-1.42a5.52,5.52,0,0,1,2.62-1.62c.16-.54,1-1.33,2.62-2.38s2.64-1.78,3.18-2.18a10.35,10.35,0,0,1,2.68-1.27q1.88-.66,4.24-5c.17-.54.81-1,1.94-1.32a6.38,6.38,0,0,0,2.8-1.67,8.48,8.48,0,0,1,1.88-1.57l1-1.22a11.74,11.74,0,0,1,1.87-1.22l6.11-6.08q4.86-2.52,5.37-3.95l1-.2h.74c1.34-.88,2.21-1.49,2.63-1.82a3.87,3.87,0,0,1,2.8-4,9.67,9.67,0,0,0,4.06-2.33,3.66,3.66,0,0,1,2.74-1.36,3.47,3.47,0,0,1,1.37.6h.25c.25,0,.5-.33.75-1v-1a3.64,3.64,0,0,1,1.25-2.84,6.59,6.59,0,0,1,3.37-1.47,7.35,7.35,0,0,0,4.12-2.58,6.3,6.3,0,0,1,4.55-2.33c1.71-.07,2.85-.61,3.43-1.63s2.38-2.11,5.37-3.29a35.74,35.74,0,0,1,5.61-1.92,8.09,8.09,0,0,0,2.06-.56,4.86,4.86,0,0,1,1.94-.41,16.25,16.25,0,0,1,3.62.61L240,408a13.31,13.31,0,0,1,5.37,3.75l1.25,1v.4l.25,1.73v.81c1.08.4,1.62.81,1.62,1.21l-.87,1.32a2.77,2.77,0,0,0-.5,1.67,15.51,15.51,0,0,1-.13,1.93c-.08.64-.19,1.25-.31,1.82a9.59,9.59,0,0,1-.5,1.62,12.49,12.49,0,0,1-.69,1.42,9.54,9.54,0,0,1-.87,1.27l-1,3.24a13.24,13.24,0,0,1-2.69,4.61,16.5,16.5,0,0,0-2.56,3.75,12,12,0,0,1-1.75,2.89l.26.61v1.42c2.58-.27,3.88-1.08,3.88-2.44s1.05-2.46,3.14-3.14l2.76-1.82a14.9,14.9,0,0,1,8-6.08c0-1.08.8-2.2,2.38-3.35l4.77-3.64,3.39-1.52c1.5-2.5,3.22-4,5.14-4.56l2.76-1.42q2.5-1,2.82-2a4.2,4.2,0,0,1,1.94-2c1.09-.68,2.68-1.79,4.77-3.35l1-.4,1.25-1a17.59,17.59,0,0,1,3.12-1l1-.41a21.47,21.47,0,0,1,5.62-2.58,30.77,30.77,0,0,0,5.62-2.18l4.37-.5a10,10,0,0,1,2-.41q11.87,0,11.87,10.84l-.25,1.62.25,5.88a46.49,46.49,0,0,0-3.12,4.36l.25,1.82a7.89,7.89,0,0,1-1.63,2.38c-1.08,1.32-1.73,2.12-1.93,2.38a24.41,24.41,0,0,1-2.31,2.13l-1.25,3A6.26,6.26,0,0,1,306.4,437v1.21q0,1.53-4.87,4.56a6.93,6.93,0,0,1-2.18,3.91,9.91,9.91,0,0,0-2.38,2.63,8.55,8.55,0,0,1-2.56,2.58q0,1.32-2.12,4.46a17.84,17.84,0,0,1-3.31,4,9.65,9.65,0,0,0-2.44,3l-1.12.41c-.5,2.57-1.09,4-1.75,4.36l-2-.21v.41c0,.14.16.37.5.71a1.58,1.58,0,0,1,.5,1.11,1.46,1.46,0,0,1-.75,1.22,1.94,1.94,0,0,0-.88,1,2.51,2.51,0,0,1-.57,1,3.6,3.6,0,0,0-.56,2,9.26,9.26,0,0,1-1.88,4,10.86,10.86,0,0,0-1.88,3.45,6,6,0,0,1-.38,1.52,3.33,3.33,0,0,0-.25,1.22,19,19,0,0,1-.62,3.14q2.37,4.56,3.38,6.18a5.9,5.9,0,0,1,1,2.13q0,4.05-1.26,5.42t-6.14,1.37a8.72,8.72,0,0,1-5.45-1.78,7.1,7.1,0,0,0-4.07-1.77v-1.83l-.25-.2h-2c-.17-.13-.52-.37-1.06-.71a6,6,0,0,1-1.56-1.42l-.75-.6a8.47,8.47,0,0,1-1.75-3.35l-.75-2,.25-1.63-.25-2.53a4.3,4.3,0,0,1,.25-1.62l.25-2.74a6.78,6.78,0,0,1,.5-1.77,11.73,11.73,0,0,0,.62-3.24,4.36,4.36,0,0,1,1.13-2.89,3.68,3.68,0,0,0,1.12-1.72,1.87,1.87,0,0,1,.69-1.17,4.24,4.24,0,0,0,.93-2.28,4.39,4.39,0,0,1,2.63-2.94,37.58,37.58,0,0,0,2.12-3.44,33,33,0,0,1,2.75-2.94H269c-.84-.81-1.25-1.28-1.25-1.42,0-1.82.87-2.73,2.62-2.73a4.76,4.76,0,0,1,1.25.2l.5-.81-.5-1.73q0-1.71,3.25-3.44,0-2.94,3.37-5.27l-.25-1.62a13.41,13.41,0,0,0,2.13-2.69,27.69,27.69,0,0,1,3.49-4.2l3.88-4.76,1.75-1.63c0,.07,0,.09.06.06a2.5,2.5,0,0,0,.25-.41,8.64,8.64,0,0,0,.43-1.06l.75-1.52.88-.81c2.16-.48,3.25-1.08,3.25-1.83a5.08,5.08,0,0,0-1-1.32v-.4c0-.54.5-1.22,1.5-2a12.93,12.93,0,0,0,2.81-3.39,8.94,8.94,0,0,0,1.31-2.69c0-.27-.17-.4-.5-.4-2.67,0-4.46.77-5.37,2.33,0,.4-1.63,1.21-4.87,2.43l-1.25,1.52a4.67,4.67,0,0,1-2.63,1.11,5.89,5.89,0,0,0-2.93,1.17q-1.82,1.17-7.94,5.27a79.17,79.17,0,0,0-9,6.74l-2.87,1.62c-1.17.47-1.76.84-1.76,1.11q0,1-2.13,2.64l-1.5,1.52a15.07,15.07,0,0,0-2-.51,3.08,3.08,0,0,0-2.38,1.12c.67.54,1,.87,1,1q0,1.62-3.76,3.34l-5.39,4.56a20.84,20.84,0,0,1-1.88,1.12,6.35,6.35,0,0,0-2.44,2.28,29.8,29.8,0,0,1-4.45,4.76,31.34,31.34,0,0,1-4.26,3.65,4.3,4.3,0,0,0-1.51,1.37,20.29,20.29,0,0,1-3.63,3.14,7,7,0,0,0-3.13,4.46c-1.59.47-2.39.87-2.39,1.21l-.75,1-1,.41a3.74,3.74,0,0,0-.38,1.37c-.08.64-1.75,1.79-5,3.44s-5.29,2.49-6.12,2.49a2.72,2.72,0,0,0-1.13.4,2.9,2.9,0,0,1-1,.41,20.69,20.69,0,0,1-3.31-1.22c-2-.81-3.39-2.7-4.31-5.67l1-2.64-.5-2.13c0-.4.4-.94,1.19-1.62a3.18,3.18,0,0,0,1.18-2.53c1.34-2.43,2.34-4.16,3-5.17l.25-1.62a9.94,9.94,0,0,1,1.69-2.28,5.34,5.34,0,0,0,1.44-2.84,2.22,2.22,0,0,1,1.62-2q1.37-.4,10.12-12.26v-1.42l3.62-5.07c1.08-1.48,2.42-3.17,4-5.07l1.12-2.33c-2.58-.81-4-1.21-4.12-1.21a3.48,3.48,0,0,0-1.87.81q0,1.73-7.37,3.54a13.8,13.8,0,0,0-3.87,2.94l-3.5,1.62a21.24,21.24,0,0,0-2.37,1.63l-1.75,1.31a10.2,10.2,0,0,0-5.36,2.84l-3.38,1.93a14.42,14.42,0,0,0-2,1.52,24.55,24.55,0,0,1-4.62,2.22l-2,1.63-1.87.81a24.12,24.12,0,0,0-3,2.94,3.87,3.87,0,0,1-2.62,1.41l-2.75.81q-.75,2.64-4.62,5.07l-3.62,3.65a17.09,17.09,0,0,1-1.75,1.11,2.77,2.77,0,0,1-1.74,1.42c-1.09,1.08-1.79,1.83-2.13,2.23l-1.49.91c-2.25.68-3.37,1.22-3.37,1.62l.24,1.83c0,.74-1,1.45-3,2.13a2.13,2.13,0,0,0-1.44,1.62,6.45,6.45,0,0,1-.93,2.33h-2.25a10,10,0,0,0-2.37,1,.8.8,0,0,0-.5.2l.5,2.34c0,.81-.67,1.74-2,2.78a23.53,23.53,0,0,0-3.06,2.79c-.71.81-1.23,1.21-1.56,1.21H139l-.75.41c.09,1.28-1,2.67-3.12,4.15l-1.5,1.52a38.58,38.58,0,0,0-4.26,5.07,55.68,55.68,0,0,1-6.63,7.4,18.44,18.44,0,0,1-5.74,3.8q-2.62,1-5.63,2l-5.12-.81a5.51,5.51,0,0,0-2.18-1.82c-1-.47-1.44-1-1.44-1.52l-1.5-3.55a6.81,6.81,0,0,1,1.37-3.49,12.5,12.5,0,0,0,1.69-3.25,14.88,14.88,0,0,1,1.44-3.14,12.44,12.44,0,0,0,1.12-2.18c0-1.82.35-2.95,1.06-3.39l4.81-3c.17,0,.25-.13.25-.4v-.21l-.25-1.72q2.88-3.94,3.63-3.95a5.12,5.12,0,0,1,1,.2l-.74-2.23c0-.27.45-.71,1.37-1.32a7.49,7.49,0,0,0,2.12-2l-.5-1.22v-.4c0-1.29,1-2.6,3.13-4q.5-.81,2-4.15l3.26-4.66a7,7,0,0,1,2.64-2.59c.92-.43,1.42-1,1.51-1.57a4.93,4.93,0,0,1,.88-2c0,.34.06.35.19.05s.33-1,.62-2,1.24-1.82,2.83-2.43q2.89-6,4.53-6a3.67,3.67,0,0,1,1.38.41h.5c1.33,0,2-.41,2-1.22,0-.27-.17-.4-.5-.4a3.21,3.21,0,0,1-2,1c-.59,0-.88-.14-.88-.41s.13-.27.38-.4l2.75-4.56.25-1.93a15.78,15.78,0,0,1,2-1.82l2.12-2.33v-1a12.49,12.49,0,0,1,1.13-2.07,14.64,14.64,0,0,0,1.62-3.7l2.13-2.53a6,6,0,0,0,.5-2.23c0-1-.17-1.52-.5-1.52L146.68,419a87.17,87.17,0,0,0-8.4,3.85l-2.89.51a26.58,26.58,0,0,0-3.33,1.37,16.26,16.26,0,0,1-5.4,1.52,7.37,7.37,0,0,0-4.07,1.47l-.5.2h-2.38a21.32,21.32,0,0,0-1.87,2c-.33.44-.63.66-.87.66q-12.63,6.79-16,8.21a33.31,33.31,0,0,0-5.13,2.58,17.49,17.49,0,0,1-3,1.68v1.21c0,1.15-1,2.45-3.07,3.9a9.63,9.63,0,0,1-5.3,2.18,6.82,6.82,0,0,1-2.32-.66,12.66,12.66,0,0,0-3.49-.86c-1.3-.13-1.94-1.42-1.94-3.85q0-5.16,10.49-9.42a19.33,19.33,0,0,0,3-1.42q1.38-.81,11.12-4l3.62-1.42a12.47,12.47,0,0,1,4.19-1.88c2-.57,3.5-1.06,4.62-1.46a20.39,20.39,0,0,1,2.69-.82Zm117.24,24.53,1.25-1.83v-.2c0-.13-.17-.2-.5-.2-.83,0-1.5.67-2,2,.17.41.33.61.5.61A.83.83,0,0,0,234.45,447.58Z" transform="translate(-47 -381.61)"/><path d="M370.37,497.43l-5.88,4.16a1.58,1.58,0,0,0-1-.41c-.83,0-1.85.61-3.06,1.82s-2.06,1.83-2.56,1.83l-1.25-.2a18.07,18.07,0,0,1-4.5,2.23,19.69,19.69,0,0,0-3.31,1.11,10.92,10.92,0,0,1-3.51.91,4.71,4.71,0,0,0-2.56.86c-.67.51-2.29.76-4.87.76l-2-.2a8.07,8.07,0,0,1-2.13.61,3.59,3.59,0,0,1-2.12-.86,4.53,4.53,0,0,0-2.44-1,4.49,4.49,0,0,1-2.69-1.41,9.05,9.05,0,0,0-2.56-1.83,5,5,0,0,1-1.94-1.42l-1.75-1.21a12.62,12.62,0,0,1-4.12-4.46c-1.34-2.16-2-3.85-2-5.07v-.4l.25-1.93-.25-2.23a6.56,6.56,0,0,0,1.25-1.72v-3.24l3-8.11q.25-.51-1-1.32a5,5,0,0,1-2.51,1.83,2.27,2.27,0,0,0-1.7,1.42,1.5,1.5,0,0,1-1.44,1.11l-1.51-.4a9.32,9.32,0,0,0-1.14,2.07,3.08,3.08,0,0,1-3,1.88c-1.51,0-2.26-.47-2.26-1.42l.25-1.83-.76-2.53c0-.54.67-1.6,2-3.19a7.31,7.31,0,0,1,3.69-2.74,4.75,4.75,0,0,0,2.87-1.92,17.67,17.67,0,0,1,5.2-3.8,6.14,6.14,0,0,0,3.88-2.64,15.62,15.62,0,0,1,4.56-1.82,9.43,9.43,0,0,0,4.26-2.08q1.44-1.37,8.51-4.25t10.32-2.89a11.47,11.47,0,0,0,2.76-.46c1.16-.3,2.25-.57,3.25-.81a16.4,16.4,0,0,0,3.13-1.11,6.57,6.57,0,0,1,2.63-.76l3.62,1a36.19,36.19,0,0,1,4.89,1.32,14.19,14.19,0,0,0,2.56.86,34.43,34.43,0,0,1,4.76,1.77,4.17,4.17,0,0,1,2.44,4.16,19.85,19.85,0,0,0-2.13,2.73c0,.27,1,.68,2.88,1.22a49,49,0,0,0,3,4l1.38,3.55.24,8.31-.24.81c-.92.67-1.38,1.11-1.38,1.31l.38,2-1,2.84A2.5,2.5,0,0,1,380.5,486a2.08,2.08,0,0,0-1.13,1l-.75.81a17,17,0,0,0-1.06,1.78,7.74,7.74,0,0,1-1.82,2.28,3.39,3.39,0,0,0-1.24,1.92,2.27,2.27,0,0,1-1.26,1.62,4.32,4.32,0,0,0-1.43,1.07A3.48,3.48,0,0,1,370.37,497.43Zm-38.82,2.64.5,2.33.25.2h2l.62.2a25.78,25.78,0,0,0,3.74.41,10.87,10.87,0,0,0,6.17-1.57,7.25,7.25,0,0,1,3.68-1.57,2.7,2.7,0,0,0,2.3-1.52c.62-1,1-1.52,1.19-1.52h1.74l.5-.21a3.48,3.48,0,0,1,2.55-3.34,7.26,7.26,0,0,0,3.62-2.69,7.88,7.88,0,0,1,2.43-2.53,4.33,4.33,0,0,0,1.87-2.28l1-1.21a1.9,1.9,0,0,0,.5-1.52l2.36-3.65a15,15,0,0,0,.75-4q0-2.13-2.68-3.35T364,467.54q0-2.32,2.93-4.31c1.95-1.31,2.93-2.11,2.93-2.38s-.25-.61-.75-.61a18.66,18.66,0,0,0-2.86.81q-.88,1.43-8.85,3.75a24.31,24.31,0,0,0-2.87-1c-.5,0-1,.4-1.5,1.22a5.59,5.59,0,0,1-1.49,1.72h-1.62q-.25,0-1.62,1.32a4.88,4.88,0,0,1-3.49,1.31l-1.5,1.22q.12,1.62-2.49,3.34l-1.37,1.32c-.84.81-1.91,1.76-3.24,2.84l-2.25,4.56a9.85,9.85,0,0,0-1.37,3.95,4.22,4.22,0,0,1-1.69,1.27c-.87.44-1.31,1-1.31,1.67,0,.13.29.47.88,1s.87.95.87,1.22l-.5,1.31-.5,3.75Z" transform="translate(-47 -381.61)"/><path d="M507.6,488.11h.5l1.25.4a.76.76,0,0,0,.5-.2,3.47,3.47,0,0,1,2-2.94,4.91,4.91,0,0,1,2.81-2.94q2.19-1,7-3.34l3.13-2.23,1.5-.61,1-1a3.92,3.92,0,0,1,2.62-1.32c1.26,0,1.88.37,1.88,1.12l-1.12,2,.5,3.35a4.26,4.26,0,0,1-1.57,3.24q-1.56,1.43-4.81,4.15l-6.38,5.48L515,494.7a11.58,11.58,0,0,0-2.25,1.41l-4.88,3.35a2.36,2.36,0,0,1-1.12,2.13h-2l-1,.4c-.59,1.29-2.3,2.53-5.13,3.75l-1.76,1a2.85,2.85,0,0,1-1.62.61l-3.5-.4-2.38.4a6.7,6.7,0,0,1-2.69-.81,19.56,19.56,0,0,0-3.44-1.27q-1.75-.45-4.44-3.74t-2.94-4.31a3.43,3.43,0,0,0-.56-1.37,4.19,4.19,0,0,1-.57-1.16,11,11,0,0,1,1.13-2v-.2a4.13,4.13,0,0,0-.69-1.42,5.14,5.14,0,0,1-.69-2.74,5.43,5.43,0,0,0-.74-2.33c.66-.54,1-.94,1-1.21a3,3,0,0,0-.37-1.17,3,3,0,0,1-.38-1.17l.75-5-.49-2.53.24-2.44c0-1.41-.74-2.12-2.24-2.12a4.53,4.53,0,0,0-2.48,1.11l-.87.2a31.93,31.93,0,0,0-4.74,2.18,5.22,5.22,0,0,1-2.86.86,7.68,7.68,0,0,1-2.86,1.12l-1,.61a14.62,14.62,0,0,1-2,1.21c0,.2-1.56,1.34-4.67,3.4s-5.91,4-8.4,5.82-4.3,2.82-5.42,3-1.68,1-1.68,2.59c0,.27-.74.81-2.24,1.62a15,15,0,0,0-2.61,2.23,11.86,11.86,0,0,0-2.24-1.22c-1.09,0-1.88,1.11-2.38,3.34-.5.88-1.84,1.42-4,1.63-.17.06-.46.57-.88,1.52l-.5.4h-1.25a6.68,6.68,0,0,0-1.75,1.17,8.3,8.3,0,0,1-2.63,1.47q-1.63,2.73-2.76,2.73a4,4,0,0,1-1.44-.4,12.75,12.75,0,0,0-2.31-.71,6.12,6.12,0,0,1-3.06-2.49,6.5,6.5,0,0,1-1.69-3.69q0-11.25,5.37-12.27l.25-.4v-.81a2,2,0,0,1,1.44-1.88,8,8,0,0,0,2.93-2.23,9,9,0,0,1,2-1.87h1.63c.33,0,.5-.71.5-2.13a1.43,1.43,0,0,1,.62-1.11,2.14,2.14,0,0,0,.75-1.47,8.36,8.36,0,0,1,1.81-3.14,9,9,0,0,0,1.69-2.59l-.25-.4c-2.08,1.55-3.58,2.4-4.5,2.53s-2.17,1.12-3.75,2.94l-2-.3a50.87,50.87,0,0,1-6.5,3.54,6.47,6.47,0,0,0-2.76,2.33c0,.41-.29.68-.88.81a15,15,0,0,0-3.25,1.63h-.75q-3.14,0-3.14-3.65l2.63-5.78q1.11-2.73,5.3-4.61a66.78,66.78,0,0,0,7.05-3.6,12,12,0,0,1,5.74-1.82l.88-1c2.82-.88,4.74-2.27,5.74-4.16s2.37-2.84,4.12-2.84q6.85,0,10.48,4.11t3.62,6.53l.25,2.74a15,15,0,0,1-.75,3.95,5.36,5.36,0,0,0-1.5,2.74c0,.54.42.81,1.25.81a4,4,0,0,0,2-.86,17,17,0,0,1,2.81-1.57,4,4,0,0,0,1.81-1.22,6.68,6.68,0,0,1,4.36-3.34,14,14,0,0,0,3.87-1.52l1.25-.81,1-1.52a14.89,14.89,0,0,0,4.49-2.23,5.69,5.69,0,0,1,3-1.32,11.55,11.55,0,0,0,4.24-1.82l1.88-.41,1.74-.81a5.57,5.57,0,0,1,1.5-.51c.83-.2,2.06-.55,3.68-1.06a13.7,13.7,0,0,1,3.31-.76q6.36,0,10,4.15t3.68,6.69l-.25,1.83.5,2.73v.41l-1,5.57.25,1.93c0,3.17-.83,5.37-2.5,6.58a.94.94,0,0,0-.62,1v.92l2.49,4.25c.75,1.49,1.34,2.23,1.76,2.23l4-.91a4.64,4.64,0,0,0,2.88-2.13,17.91,17.91,0,0,0,3.51-2.43A2.48,2.48,0,0,1,507.6,488.11Z" transform="translate(-47 -381.61)"/><path d="M595.73,497.43l-5.88,4.16a1.6,1.6,0,0,0-1-.41c-.83,0-1.85.61-3.06,1.82s-2.06,1.83-2.56,1.83l-1.25-.2a18.42,18.42,0,0,1-4.5,2.23,20.06,20.06,0,0,0-3.32,1.11,10.87,10.87,0,0,1-3.5.91,4.71,4.71,0,0,0-2.56.86c-.67.51-2.29.76-4.87.76l-2-.2a8,8,0,0,1-2.12.61,3.59,3.59,0,0,1-2.13-.86,4.5,4.5,0,0,0-2.43-1,4.46,4.46,0,0,1-2.69-1.41,9.05,9.05,0,0,0-2.56-1.83,5,5,0,0,1-1.94-1.42l-1.75-1.21a12.64,12.64,0,0,1-4.13-4.46q-2-3.24-2-5.07v-.4l.25-1.93-.25-2.23a6.34,6.34,0,0,0,1.25-1.72v-3.24l3-8.11c.17-.34-.17-.78-1-1.32a5,5,0,0,1-2.5,1.83,2.26,2.26,0,0,0-1.7,1.42,1.5,1.5,0,0,1-1.45,1.11l-1.51-.4a10,10,0,0,0-1.13,2.07,3.09,3.09,0,0,1-3,1.88c-1.51,0-2.27-.47-2.27-1.42l.26-1.83-.76-2.53c0-.54.67-1.6,2-3.19a7.39,7.39,0,0,1,3.69-2.74,4.74,4.74,0,0,0,2.88-1.92q1.18-1.58,5.19-3.8a6.13,6.13,0,0,0,3.89-2.64,15.5,15.5,0,0,1,4.56-1.82,9.43,9.43,0,0,0,4.26-2.08q1.44-1.37,8.51-4.25t10.32-2.89a11.4,11.4,0,0,0,2.75-.46l3.26-.81a16.08,16.08,0,0,0,3.12-1.11,6.66,6.66,0,0,1,2.63-.76l3.63,1a35.39,35.39,0,0,1,4.88,1.32,14.47,14.47,0,0,0,2.57.86,33.85,33.85,0,0,1,4.75,1.77,4.15,4.15,0,0,1,2.44,4.16,19.19,19.19,0,0,0-2.12,2.73c0,.27.95.68,2.87,1.22a49.5,49.5,0,0,0,3,4L609.1,469l.25,8.31-.25.81c-.92.67-1.37,1.11-1.37,1.31l.37,2-1,2.84a2.47,2.47,0,0,1-1.25,1.72,2.05,2.05,0,0,0-1.12,1l-.75.81a17,17,0,0,0-1.06,1.78,7.74,7.74,0,0,1-1.82,2.28,3.41,3.41,0,0,0-1.25,1.92,2.26,2.26,0,0,1-1.25,1.62,4.21,4.21,0,0,0-1.43,1.07A3.54,3.54,0,0,1,595.73,497.43Zm-38.82,2.64.5,2.33.25.2h2l.63.2a25.64,25.64,0,0,0,3.74.41,10.87,10.87,0,0,0,6.17-1.57,7.25,7.25,0,0,1,3.67-1.57,2.71,2.71,0,0,0,2.31-1.52c.62-1,1-1.52,1.18-1.52h1.75l.5-.21a3.48,3.48,0,0,1,2.55-3.34,7.31,7.31,0,0,0,3.62-2.69,7.88,7.88,0,0,1,2.43-2.53,4.38,4.38,0,0,0,1.87-2.28l1-1.21a1.9,1.9,0,0,0,.5-1.52l2.37-3.65a15,15,0,0,0,.75-4q0-2.13-2.68-3.35t-2.68-4.76c0-1.55,1-3,2.93-4.31s2.93-2.11,2.93-2.38-.25-.61-.75-.61a18.62,18.62,0,0,0-2.87.81q-.87,1.43-8.85,3.75a23.85,23.85,0,0,0-2.86-1c-.5,0-1,.4-1.5,1.22a5.6,5.6,0,0,1-1.5,1.72h-1.62a6,6,0,0,0-1.62,1.32,4.84,4.84,0,0,1-3.49,1.31l-1.49,1.22q.12,1.62-2.49,3.34l-1.38,1.32q-1.25,1.22-3.24,2.84l-2.24,4.56a9.85,9.85,0,0,0-1.37,3.95,4.22,4.22,0,0,1-1.69,1.27c-.87.44-1.31,1-1.31,1.67,0,.13.29.47.87,1s.88.95.88,1.22l-.5,1.31-.5,3.75Z" transform="translate(-47 -381.61)"/><path d="M672.55,484v-.7a7.73,7.73,0,0,1,.25-2.23,7.09,7.09,0,0,1-.75-2.94,22.3,22.3,0,0,1,1.25-2.84l1.12-3.14a15.08,15.08,0,0,1,1-1.93,10.41,10.41,0,0,1-.75-1.82,5.05,5.05,0,0,1,1.62-3.85,11.94,11.94,0,0,0,2.75-4.26l2.5-6.18,4.12-8.1a10.19,10.19,0,0,1,1.18-1.63c.71-.87,1.29-1.63,1.75-2.28s1.1-1.57,1.94-2.78l1.25-.21a1.08,1.08,0,0,0,.49-.81,10.34,10.34,0,0,0-.49-1.62l4.37-5.87,2.62-4.36a5.78,5.78,0,0,1,2.75-2.23q2.49-3.75,4.37-4.56a14.36,14.36,0,0,1,2.75-4.16l2.37-.2a8.65,8.65,0,0,1,1.25-2.13l.25-2c0,.4.21.29.63-.36a37.1,37.1,0,0,0,1.87-3.59l3.37-3.15,1-1.41a33.48,33.48,0,0,0,2-2.74,6.36,6.36,0,0,0,3.12-2.23l2.63-1.72q-.25-1.11,3-5a17.66,17.66,0,0,0,3.87-1.82l1.75-.41a4.84,4.84,0,0,1,3.12-4.86l1.5-.81a13.94,13.94,0,0,1,2.25-.81l.87-.2a13.51,13.51,0,0,1,3.5-.41,13.69,13.69,0,0,1,8.37,2.79q3.75,2.79,3.75,6.33c0,.95-.63,1.93-1.88,2.94l-.5.81c-1.16,3.72-2,5.57-2.49,5.57a2.69,2.69,0,0,0-1.38.61,15.75,15.75,0,0,1-.5,3.75q-2.25.3-2.25,4.56a8.15,8.15,0,0,1-1.81,2.08,9.7,9.7,0,0,0-2.43,4.05c-.59,1.72-1.21,2.58-1.88,2.58h-1.37l.37,1.52a3.74,3.74,0,0,1-1.68,2.79,5.47,5.47,0,0,0-2.06,2.89q-.37,1.51-3,3.65L735,430.15a15.27,15.27,0,0,1-2,2.13,8.56,8.56,0,0,0-2.12,3.44l-3.25,4.86c-2.25,3.32-4,4.9-5.12,4.77a30.77,30.77,0,0,1-1.5,4.56,3.5,3.5,0,0,1-1.75,1.11,4,4,0,0,0-2.13,1.77,5.93,5.93,0,0,1-1.62,1.88l-2.25,3.75a4.78,4.78,0,0,0-2.87,2.63,3.15,3.15,0,0,0-2.5,2.74,6.51,6.51,0,0,0-1.25,1.82l-4.37,3.55q-3.37,1.92-3.62,4.41c-.17,1.65-1.25,2.48-3.25,2.48a20.15,20.15,0,0,1-6.25-1.52h-.25a8.83,8.83,0,0,1-1.75,3.14l.5,2.74a58.63,58.63,0,0,1-2,6.38,5,5,0,0,1,1,2.13l-.25,2.23.63,2.73q.62,3.35,3,3.35l3,.4a21.07,21.07,0,0,0,3.12-1.52l4.62-2c.17,0,.25.07.25.2a6.91,6.91,0,0,0,2,.41c.83,0,1.25-.54,1.25-1.63v-1.31a2.91,2.91,0,0,1,1.81-1.22,4.3,4.3,0,0,0,1.93-.91,2.56,2.56,0,0,1,1.38-.71h1.24c1.25,0,1.88-1.18,1.88-3.55a5.1,5.1,0,0,0,1.25-.81h1.49c.67,0,1.4-.66,2.19-2a11.34,11.34,0,0,1,1.68-2.38,10.66,10.66,0,0,0,3.12-.61q4-5.88,6.12-5.88h.75c1.41-1.08,2.19-2,2.31-2.89a2,2,0,0,1,1.25-1.67,9.29,9.29,0,0,0,1.93-1,3,3,0,0,1,1.13-.61c1.24,0,1.87.37,1.87,1.11l-.38,2.84.88,3c0,.27-.36.8-1.06,1.57a3.75,3.75,0,0,0-1.06,2.59c0,2-.42,3-1.25,3.14a3.05,3.05,0,0,0-2.06,1.36,7.16,7.16,0,0,1-2.69,2.13,6.67,6.67,0,0,0-2.87,2.79l-2.12.4-1.25.61q-1.5,3.15-3.18,3.85t-4.18,4.26c-.25,0-.38.07-.38.2l-2-.2a4.4,4.4,0,0,1-2.25,1.92,3.74,3.74,0,0,0-1.87,1.17,6,6,0,0,1-2.69,1.47,4.31,4.31,0,0,0-2.43,1.42,1.91,1.91,0,0,1-1.5.91,3.67,3.67,0,0,0-1.87.76,2.71,2.71,0,0,1-1.5.66c-.17,0-.75-.07-1.75-.21h-.5a7.43,7.43,0,0,1-3.49,1.22,5.16,5.16,0,0,0-2.37.41,6.92,6.92,0,0,0-2.32-.61,14.45,14.45,0,0,1-3.55-1,19.34,19.34,0,0,1-2.63.41q-2.12,0-5.36-3.39t-3.25-6.64a12.87,12.87,0,0,0-1.44-1.57A4.52,4.52,0,0,1,671.8,491v-1l.25-1.21v-1.93l.25-.61c1.25-.13,1.87-.27,1.87-.4ZM697.9,457.1l2.62-1.21c.33-1.08,1.41-2.39,3.25-3.91s3.12-2.28,3.87-2.28h1a3,3,0,0,1,.37-1.41,4.19,4.19,0,0,0,.38-1.93c0-.4,1.12-1.52,3.37-3.34l1-1.83c.75-1.75,2.62-3.21,5.62-4.35,1.17-2,2-2.94,2.63-2.94l1-.21a6,6,0,0,1,2-2.73l.5-.61v-1.62c0-.14.57-.69,1.69-1.67a11.86,11.86,0,0,0,2.44-2.74,5.21,5.21,0,0,1,2.06-2,3.88,3.88,0,0,0,1.81-2.54l2-.2a3.74,3.74,0,0,1,.25-1.72l.25-1a74.94,74.94,0,0,1,4.37-6.38l2-3.75c0-.41.35-.89,1.06-1.47a3,3,0,0,0,1.06-2.48l1-3.35c0-1.55-.33-2.33-1-2.33a10.7,10.7,0,0,1-2.31,1c-.71.2-1.39,1.42-2.06,3.64q-3.75.72-4.31,2.89a6.24,6.24,0,0,1-3.06,3.7l-.88,1.22c-.16.74-1,1.52-2.37,2.33a12.1,12.1,0,0,0-4,4.15q-6.24,7-6.87,7.5l-1.25,1.22-1.87-.21a14.89,14.89,0,0,1,.5,1.83,1.52,1.52,0,0,1-.75,1.16,3.59,3.59,0,0,0-1.12,1.37,6.7,6.7,0,0,1-1.5,1.88,9.55,9.55,0,0,0-2.06,3.44c-.63,1.59-1.19,2.52-1.69,2.79l-1.75-.2q-1.62.81-1.62,1.62l.37,1.42q0,.4-.69,1a5.42,5.42,0,0,0-1.31,2.18,24,24,0,0,1-3.12,4.91,28.9,28.9,0,0,0-3.94,7q-1.43,3.7-2.81,4.71a1.16,1.16,0,0,0,.75.21C695.85,459.84,696.9,458.93,697.9,457.1Z" transform="translate(-47 -381.61)"/><path d="M727.6,472.91l2-1.42h.75A5,5,0,0,0,733,470l1.25-.4q2.5-3,4.38-3.55l2-1.22a4.82,4.82,0,0,1,1.44-.71,11.53,11.53,0,0,0,3-2,6,6,0,0,1,3.32-1.67,7.75,7.75,0,0,1,2,.2,7.45,7.45,0,0,1,3-2.38,11.9,11.9,0,0,0,3.63-2.79l1.62-.61a13.76,13.76,0,0,0,3.56-2.08,6.3,6.3,0,0,1,4.07-1.26,12.65,12.65,0,0,1,7.56,3c2.62,2,3.94,3.9,3.94,5.72l-2.13,7.91c-1.41,5.81-3,8.85-4.74,9.12l-.5,2.12c-1.17.68-1.75,1.22-1.75,1.63l.75,2.43c0,.34-.46.84-1.38,1.52-.17,0-.25.2-.25.61v4.15c0,.74-.58,1.35-1.75,1.82a2.82,2.82,0,0,0,.75.41c.5-.41,1.63-.61,3.38-.61l2,.2,2.75-2.23a12,12,0,0,0,2.43-1,47.82,47.82,0,0,1,5.3-2l16.35-10.14q3.36-2.73,5.11-2.73a1.67,1.67,0,0,1,1.87,1.92,6.14,6.14,0,0,1-1.06,3.7,17.56,17.56,0,0,0-1.94,3.55,6.41,6.41,0,0,1-2.06,2.89,8.51,8.51,0,0,0-1.93,1.77,15.63,15.63,0,0,1-4.06,2.79,37.5,37.5,0,0,0-5.62,3.69,26.55,26.55,0,0,1-3.81,2.69l-5.37,3.14-.75,1a12.33,12.33,0,0,1-2.31.87,16,16,0,0,0-3.69,1.67l-2.24,1a6.3,6.3,0,0,1-2.44.51,4.79,4.79,0,0,0-2.93,1.16,3.62,3.62,0,0,1-2,1.07l-1.88-.21-2.49.61a9.83,9.83,0,0,1-5.19-2.08q-3.06-2.07-3.06-4.4v-.61l.25-1.42a8,8,0,0,0-.75-2.08,11.39,11.39,0,0,1-.75-1.87l.25-1.42-.25-.61a7.25,7.25,0,0,1,.5-3.44,5.32,5.32,0,0,0,.75-2c.17-.84.33-1.54.5-2.08l.62-2.53a3.1,3.1,0,0,1,1.25-1.62c.17-.54.5-1.45,1-2.74l.5-1.82,1.25-1.42a3.28,3.28,0,0,0,1.19-2.18,6.41,6.41,0,0,1,1.31-2.89,6.13,6.13,0,0,0,1.12-1.82c0-.81-.49-1.22-1.49-1.22a11.55,11.55,0,0,0-3.13,1.62l-2.25-.6c-.17,0-.62.34-1.37,1,0,.27-.38.47-1.13.61a3.54,3.54,0,0,0-2.12,1.52l-1,.2-1.62-.61h-.5c-.84,0-1.34.75-1.5,2.23a6.51,6.51,0,0,1-3.63,2.13l-2.75.61a3.11,3.11,0,0,0-2,1.82,6.06,6.06,0,0,1-2.5,2.59,6.69,6.69,0,0,1-2.49,1.16c-2.34,0-3.5-1.05-3.5-3.14l1-4.76Zm54-50.67-.75-3.95v-.61q0-4.76,4-5.27a53.6,53.6,0,0,0,5.25-1.31q2.25.4,4.68,3.19t2.44,4.91a3,3,0,0,1-.38.92,7.36,7.36,0,0,0-.5,2.68,4.49,4.49,0,0,1-2.43,3.45,9.07,9.07,0,0,1-4.94,1.47c-1.17,0-2.64-.66-4.43-2S781.73,423.26,781.56,422.24Z" transform="translate(-47 -381.61)"/><path d="M825.07,459.63l1.74-2.53a13.45,13.45,0,0,1,1.94-1.87q1.18-1,2.57-5a13.28,13.28,0,0,1,3.06-5.52,7.16,7.16,0,0,1,4.94-1.52,12.26,12.26,0,0,1,4.94,1.47q3.06,1.47,6,8.87T853.2,464a7.77,7.77,0,0,0,.87,3.09A17.37,17.37,0,0,1,855.2,470a10,10,0,0,0-1,1.93l.25,4.15-1.5,3.34v2.44a7.41,7.41,0,0,0-1.5,2.53,2,2,0,0,0,.5,1.22q5.87-2,7.12-3.3a5.45,5.45,0,0,1,2.43-1.57,12.93,12.93,0,0,0,3.93-2.63l2.37-1c.83-.81,1.53-1.53,2.12-2.17a4.76,4.76,0,0,1,2.05-1.37,14.49,14.49,0,0,0,2.81-1.42,34.89,34.89,0,0,1,4.74-2.33l1.25-1.22a14,14,0,0,1,4.42-2.73,21.57,21.57,0,0,1,2.81-1c.58,0,1.18.63,1.81,1.88a8.27,8.27,0,0,1,.93,3.7q0,1.72-2.43,3.39a32.9,32.9,0,0,0-3.31,2.48,9,9,0,0,1-4,1.42q-.25.1-4.12,4.16l-2.5,1.21-1.24,1.32c-.17.27-1.29.54-3.37.81-.09,0-.27.34-.57,1s-1.18,1.15-2.68,1.42q-4.49,3.34-4.61,3.75l-2.63.41a6.68,6.68,0,0,1-1.24,2.33c-2,.4-3.12,1.08-3.37,2a5.45,5.45,0,0,1-1.25.41l-.5.3a14.4,14.4,0,0,1-5.62,2.23l-2.87.61-1,1.22c0,.34-1,.77-3.05,1.31a12.5,12.5,0,0,0-4.56,2l-2.12,1.32q-3.87,1.21-4.87,2.23H827.1q-1.76,0-5.5,2.07t-6,2.08q-7.23,0-9.92-1.47a14.62,14.62,0,0,1-4.43-3.65,31.28,31.28,0,0,0-3.18-3.49c-1-.88-1.43-1.59-1.43-2.13s.39-.94,1.18-1.42a8.66,8.66,0,0,0,2.56-2.89c.91-1.45,3.25-2.38,7-2.78a10.66,10.66,0,0,0,1.81-.61,7.31,7.31,0,0,1,2.56-.61q1.25,0,3.12,1.83c0,.13.16.2.5.2l2-.2a4.91,4.91,0,0,0,1.88.81,11,11,0,0,0,6.36-2.44l.5-.2h1c.25,0,.66-.57,1.24-1.72l2.13-3.55,4.36-4.56v-1a7.37,7.37,0,0,1,.75-1.82v-1.52q0-.92,1.5-1.17c1-.17,1.5-.59,1.5-1.27l-.25-.81a3.1,3.1,0,0,1-1-1.72l1.25-2-.25-2.12.5-.82a9.22,9.22,0,0,1-.5-1.62l.5-2.53c0-.07-.23-.71-.69-1.93s-.81-1.82-1.06-1.82q-.75,0-4.76,3.14c-2.66,2.1-4.25,3.58-4.75,4.46a6.51,6.51,0,0,1-3.19,2.38,7.52,7.52,0,0,0-3.31,2.38,3.17,3.17,0,0,1-2.13,1.52l-8.38,5.48-9.13,5.47c-.67.6-1.08.91-1.25.91-3.08,0-4.63-1.38-4.63-4.16q0-1.31,1.88-4.76l1.31-.61c.3-.13.44-.23.44-.3s-.08-.1-.25-.1l.75.4h.25a43.35,43.35,0,0,1,6-2.93,4.69,4.69,0,0,0,2.5-2.23l5.26-3a72.32,72.32,0,0,0,6.12-4.46A32.33,32.33,0,0,0,825.07,459.63Z" transform="translate(-47 -381.61)"/><path d="M939,497.43l-5.88,4.16a1.6,1.6,0,0,0-1-.41c-.83,0-1.85.61-3.06,1.82s-2.06,1.83-2.56,1.83l-1.25-.2a18.42,18.42,0,0,1-4.5,2.23A20.06,20.06,0,0,0,917.4,508a10.87,10.87,0,0,1-3.5.91,4.71,4.71,0,0,0-2.56.86c-.67.51-2.29.76-4.87.76l-2-.2a8,8,0,0,1-2.12.61,3.59,3.59,0,0,1-2.13-.86,4.5,4.5,0,0,0-2.43-1,4.46,4.46,0,0,1-2.69-1.41,9.05,9.05,0,0,0-2.56-1.83,5,5,0,0,1-1.94-1.42l-1.75-1.21a12.64,12.64,0,0,1-4.13-4.46q-2-3.24-2-5.07v-.4l.25-1.93-.25-2.23A6.34,6.34,0,0,0,884,487.4v-3.24l3-8.11c.17-.34-.17-.78-1-1.32a5,5,0,0,1-2.5,1.83,2.26,2.26,0,0,0-1.7,1.42,1.5,1.5,0,0,1-1.45,1.11l-1.51-.4a10,10,0,0,0-1.13,2.07,3.09,3.09,0,0,1-3,1.88c-1.51,0-2.27-.47-2.27-1.42l.26-1.83-.76-2.53c0-.54.67-1.6,2-3.19a7.39,7.39,0,0,1,3.69-2.74,4.74,4.74,0,0,0,2.88-1.92,17.59,17.59,0,0,1,5.19-3.8,6.13,6.13,0,0,0,3.89-2.64,15.5,15.5,0,0,1,4.56-1.82,9.43,9.43,0,0,0,4.26-2.08q1.44-1.37,8.51-4.25t10.32-2.89a11.4,11.4,0,0,0,2.75-.46l3.26-.81a16.08,16.08,0,0,0,3.12-1.11,6.66,6.66,0,0,1,2.63-.76l3.63,1a35.39,35.39,0,0,1,4.88,1.32,14.47,14.47,0,0,0,2.57.86,33.85,33.85,0,0,1,4.75,1.77,4.15,4.15,0,0,1,2.44,4.16,19.19,19.19,0,0,0-2.12,2.73c0,.27.95.68,2.87,1.22a49.5,49.5,0,0,0,3,4l1.37,3.55.25,8.31-.25.81c-.92.67-1.37,1.11-1.37,1.31l.37,2-1,2.84a2.47,2.47,0,0,1-1.25,1.72,2.05,2.05,0,0,0-1.12,1l-.75.81a17,17,0,0,0-1.06,1.78,7.74,7.74,0,0,1-1.82,2.28,3.41,3.41,0,0,0-1.25,1.92,2.26,2.26,0,0,1-1.25,1.62,4.21,4.21,0,0,0-1.43,1.07A3.54,3.54,0,0,1,939,497.43Zm-38.82,2.64.5,2.33.25.2h2l.63.2a25.64,25.64,0,0,0,3.74.41,10.87,10.87,0,0,0,6.17-1.57,7.25,7.25,0,0,1,3.67-1.57,2.71,2.71,0,0,0,2.31-1.52c.62-1,1-1.52,1.18-1.52h1.75l.5-.21a3.48,3.48,0,0,1,2.55-3.34,7.31,7.31,0,0,0,3.62-2.69,7.88,7.88,0,0,1,2.43-2.53,4.38,4.38,0,0,0,1.87-2.28l1-1.21a1.9,1.9,0,0,0,.5-1.52l2.37-3.65a15,15,0,0,0,.75-4q0-2.13-2.68-3.35t-2.68-4.76c0-1.55,1-3,2.93-4.31s2.93-2.11,2.93-2.38-.25-.61-.75-.61a18.62,18.62,0,0,0-2.87.81q-.87,1.43-8.85,3.75a23.85,23.85,0,0,0-2.86-1c-.5,0-1,.4-1.5,1.22a5.6,5.6,0,0,1-1.5,1.72h-1.62a6,6,0,0,0-1.62,1.32,4.84,4.84,0,0,1-3.49,1.31l-1.49,1.22q.12,1.62-2.49,3.34L908,475.24q-1.25,1.22-3.24,2.84l-2.24,4.56a9.85,9.85,0,0,0-1.37,3.95,4.22,4.22,0,0,1-1.69,1.27c-.87.44-1.31,1-1.31,1.67,0,.13.29.47.87,1s.88.95.88,1.22l-.5,1.31-.5,3.75Z" transform="translate(-47 -381.61)"/><rect y="162.05" width="909.86" height="70.34" rx="12"/><path class="cls-1" d="M181.73,569h-7.19v-2.6h17.51V569h-7.23v21.06h-3.09Z" transform="translate(-47 -381.61)"/><path class="cls-1" d="M207.46,581.43c0,6.29-4.36,9-8.46,9-4.6,0-8.15-3.37-8.15-8.74,0-5.68,3.73-9,8.43-9C204.16,572.7,207.46,576.24,207.46,581.43Zm-13.48.18c0,3.72,2.14,6.53,5.16,6.53s5.16-2.78,5.16-6.6c0-2.88-1.44-6.53-5.09-6.53S194,578.38,194,581.61Z" transform="translate(-47 -381.61)"/><path class="cls-1" d="M225.56,585.43c0,1.76,0,3.3.14,4.64H223l-.18-2.78h-.07a6.39,6.39,0,0,1-5.61,3.16c-2.67,0-5.87-1.47-5.87-7.44v-9.93h3.09v9.41c0,3.23,1,5.4,3.79,5.4a4.46,4.46,0,0,0,4.07-2.81,4.36,4.36,0,0,0,.29-1.58V573.08h3.08Z" transform="translate(-47 -381.61)"/><path class="cls-1" d="M230.27,586.91a8,8,0,0,0,4.07,1.23c2.24,0,3.3-1.13,3.3-2.53s-.88-2.28-3.16-3.12c-3.06-1.09-4.5-2.78-4.5-4.81,0-2.74,2.22-5,5.87-5a8.51,8.51,0,0,1,4.17,1l-.77,2.24a6.64,6.64,0,0,0-3.47-1c-1.83,0-2.85,1-2.85,2.32s1,2,3.23,2.88c3,1.12,4.46,2.59,4.46,5.12,0,3-2.32,5.09-6.35,5.09a9.76,9.76,0,0,1-4.78-1.16Z" transform="translate(-47 -381.61)"/><path class="cls-1" d="M264.13,589.44a11.43,11.43,0,0,1-4.88,1c-5.12,0-8.46-3.48-8.46-8.67s3.58-9,9.13-9a10.34,10.34,0,0,1,4.28.88l-.7,2.38a7.21,7.21,0,0,0-3.58-.8c-3.9,0-6,2.87-6,6.42,0,3.93,2.52,6.35,5.89,6.35a8.67,8.67,0,0,0,3.79-.84Z" transform="translate(-47 -381.61)"/><path class="cls-1" d="M282.91,581.43c0,6.29-4.36,9-8.46,9-4.6,0-8.14-3.37-8.14-8.74,0-5.68,3.72-9,8.42-9C279.61,572.7,282.91,576.24,282.91,581.43Zm-13.48.18c0,3.72,2.14,6.53,5.16,6.53s5.16-2.78,5.16-6.6c0-2.88-1.44-6.53-5.09-6.53S269.43,578.38,269.43,581.61Z" transform="translate(-47 -381.61)"/><path class="cls-1" d="M286.8,577.68c0-1.76,0-3.19-.14-4.6h2.74l.17,2.81h.07a6.25,6.25,0,0,1,5.62-3.19c2.35,0,6,1.4,6,7.22v10.15h-3.09v-9.79c0-2.74-1-5-3.93-5a4.53,4.53,0,0,0-4.35,4.59v10.22H286.8Z" transform="translate(-47 -381.61)"/><path class="cls-1" d="M309.86,568.2v4.88h4.42v2.35h-4.42v9.16c0,2.11.6,3.3,2.31,3.3a6.62,6.62,0,0,0,1.79-.21l.14,2.32a7.63,7.63,0,0,1-2.73.42,4.3,4.3,0,0,1-3.34-1.3c-.87-.91-1.19-2.42-1.19-4.42v-9.27h-2.63v-2.35h2.63V569Z" transform="translate(-47 -381.61)"/><path class="cls-1" d="M317.75,578.38c0-2,0-3.72-.14-5.3h2.71l.1,3.34h.14a5.08,5.08,0,0,1,4.7-3.72,3.33,3.33,0,0,1,.88.1v2.91a4.62,4.62,0,0,0-1.05-.1c-2.18,0-3.72,1.65-4.14,4a8.9,8.9,0,0,0-.14,1.44v9.06h-3.06Z" transform="translate(-47 -381.61)"/><path class="cls-1" d="M330.6,582.14c.07,4.17,2.74,5.89,5.82,5.89a11,11,0,0,0,4.71-.88l.52,2.22a13.73,13.73,0,0,1-5.65,1c-5.23,0-8.35-3.44-8.35-8.56s3-9.16,8-9.16c5.54,0,7,4.87,7,8a10.69,10.69,0,0,1-.11,1.44Zm9-2.22c0-2-.8-5-4.28-5-3.12,0-4.49,2.87-4.74,5Z" transform="translate(-47 -381.61)"/><path class="cls-1" d="M353.9,565.15H357v24.92H353.9Z" transform="translate(-47 -381.61)"/><path class="cls-1" d="M366.29,566a40.56,40.56,0,0,1-3.3,8.31l-2,.25a48.29,48.29,0,0,0,2.07-8.25Z" transform="translate(-47 -381.61)"/><path class="cls-1" d="M371.73,568.31a1.92,1.92,0,0,1-3.83,0,1.88,1.88,0,0,1,1.93-1.93A1.83,1.83,0,0,1,371.73,568.31Zm-3.44,21.76v-17h3.09v17Z" transform="translate(-47 -381.61)"/><path class="cls-1" d="M376.08,586.91a8,8,0,0,0,4.07,1.23c2.25,0,3.3-1.13,3.3-2.53s-.88-2.28-3.16-3.12c-3.05-1.09-4.49-2.78-4.49-4.81,0-2.74,2.21-5,5.86-5a8.45,8.45,0,0,1,4.17,1l-.77,2.24a6.58,6.58,0,0,0-3.47-1c-1.83,0-2.84,1-2.84,2.32s1,2,3.22,2.88c2.95,1.12,4.46,2.59,4.46,5.12,0,3-2.31,5.09-6.35,5.09a9.69,9.69,0,0,1-4.77-1.16Z" transform="translate(-47 -381.61)"/><path class="cls-1" d="M405.77,581.43c0,6.29-4.35,9-8.46,9-4.6,0-8.14-3.37-8.14-8.74,0-5.68,3.72-9,8.42-9C402.47,572.7,405.77,576.24,405.77,581.43Zm-13.48.18c0,3.72,2.14,6.53,5.16,6.53s5.16-2.78,5.16-6.6c0-2.88-1.44-6.53-5.09-6.53S392.29,578.38,392.29,581.61Z" transform="translate(-47 -381.61)"/><path class="cls-1" d="M409.66,565.15h3.09v24.92h-3.09Z" transform="translate(-47 -381.61)"/><path class="cls-1" d="M419.66,582.14c.07,4.17,2.74,5.89,5.83,5.89a11,11,0,0,0,4.7-.88l.53,2.22a13.81,13.81,0,0,1-5.65,1c-5.23,0-8.35-3.44-8.35-8.56s3-9.16,8-9.16c5.55,0,7,4.87,7,8a13.18,13.18,0,0,1-.1,1.44Zm9.06-2.22c0-2-.81-5-4.28-5-3.13,0-4.49,2.87-4.74,5Z" transform="translate(-47 -381.61)"/><path class="cls-1" d="M435.53,577.68c0-1.76,0-3.19-.14-4.6h2.7l.14,2.74h.1a5.85,5.85,0,0,1,5.34-3.12,5,5,0,0,1,4.81,3.4h.07a6.94,6.94,0,0,1,1.89-2.21,5.81,5.81,0,0,1,3.76-1.19c2.24,0,5.58,1.47,5.58,7.37v10h-3v-9.62c0-3.26-1.19-5.23-3.69-5.23a4,4,0,0,0-3.65,2.81,5.08,5.08,0,0,0-.24,1.54v10.5h-3V579.89c0-2.7-1.19-4.67-3.54-4.67a4.23,4.23,0,0,0-3.83,3.09,4.39,4.39,0,0,0-.25,1.51v10.25h-3Z" transform="translate(-47 -381.61)"/><path class="cls-1" d="M466.51,582.14c.07,4.17,2.74,5.89,5.83,5.89a11,11,0,0,0,4.7-.88l.53,2.22a13.81,13.81,0,0,1-5.65,1c-5.23,0-8.35-3.44-8.35-8.56s3-9.16,8-9.16c5.55,0,7,4.87,7,8a13.18,13.18,0,0,1-.1,1.44Zm9.06-2.22c0-2-.81-5-4.28-5-3.13,0-4.49,2.87-4.74,5Z" transform="translate(-47 -381.61)"/><path class="cls-1" d="M482.38,577.68c0-1.76,0-3.19-.14-4.6H485l.18,2.81h.07a6.23,6.23,0,0,1,5.61-3.19c2.36,0,6,1.4,6,7.22v10.15h-3.09v-9.79c0-2.74-1-5-3.93-5a4.53,4.53,0,0,0-4.35,4.59v10.22h-3.09Z" transform="translate(-47 -381.61)"/><path class="cls-1" d="M505.43,568.2v4.88h4.43v2.35h-4.43v9.16c0,2.11.6,3.3,2.32,3.3a6.68,6.68,0,0,0,1.79-.21l.14,2.32a7.69,7.69,0,0,1-2.74.42,4.28,4.28,0,0,1-3.33-1.3c-.88-.91-1.19-2.42-1.19-4.42v-9.27h-2.64v-2.35h2.64V569Z" transform="translate(-47 -381.61)"/><path class="cls-1" d="M535.44,565.15v20.53c0,1.51,0,3.23.14,4.39h-2.77l-.14-3h-.07a6.29,6.29,0,0,1-5.79,3.33c-4.11,0-7.27-3.47-7.27-8.63,0-5.65,3.47-9.12,7.62-9.12a5.67,5.67,0,0,1,5.12,2.59h.07V565.15ZM532.35,580a5.18,5.18,0,0,0-.14-1.3,4.54,4.54,0,0,0-4.46-3.58c-3.19,0-5.09,2.8-5.09,6.56,0,3.44,1.69,6.28,5,6.28a4.65,4.65,0,0,0,4.53-3.68,5.2,5.2,0,0,0,.14-1.34Z" transform="translate(-47 -381.61)"/><path class="cls-1" d="M542.28,582.14c.07,4.17,2.74,5.89,5.83,5.89a11,11,0,0,0,4.7-.88l.53,2.22a13.81,13.81,0,0,1-5.65,1c-5.23,0-8.36-3.44-8.36-8.56s3-9.16,8-9.16c5.55,0,7,4.87,7,8a10.69,10.69,0,0,1-.11,1.44Zm9.06-2.22c0-2-.81-5-4.29-5-3.12,0-4.49,2.87-4.73,5Z" transform="translate(-47 -381.61)"/><path class="cls-1" d="M557.72,586.91a8.09,8.09,0,0,0,4.07,1.23c2.25,0,3.3-1.13,3.3-2.53s-.87-2.28-3.16-3.12c-3-1.09-4.49-2.78-4.49-4.81,0-2.74,2.21-5,5.86-5a8.52,8.52,0,0,1,4.18,1l-.77,2.24a6.65,6.65,0,0,0-3.48-1c-1.82,0-2.84,1-2.84,2.32s1,2,3.23,2.88c3,1.12,4.46,2.59,4.46,5.12,0,3-2.32,5.09-6.36,5.09a9.69,9.69,0,0,1-4.77-1.16Z" transform="translate(-47 -381.61)"/><path class="cls-1" d="M579.48,578.63c0-2.18-.07-3.93-.14-5.55h2.77l.14,2.91h.07a6.69,6.69,0,0,1,6-3.29c4.11,0,7.19,3.47,7.19,8.63,0,6.11-3.72,9.12-7.72,9.12a6,6,0,0,1-5.23-2.66h-.07V597h-3Zm3,4.52a7,7,0,0,0,.14,1.27,4.78,4.78,0,0,0,4.64,3.61c3.26,0,5.16-2.67,5.16-6.56,0-3.41-1.79-6.32-5.06-6.32a4.92,4.92,0,0,0-4.66,3.83,4.75,4.75,0,0,0-.22,1.26Z" transform="translate(-47 -381.61)"/><path class="cls-1" d="M601.17,582.14c.07,4.17,2.74,5.89,5.82,5.89a11,11,0,0,0,4.71-.88l.52,2.22a13.73,13.73,0,0,1-5.65,1c-5.23,0-8.35-3.44-8.35-8.56s3-9.16,8-9.16c5.54,0,7,4.87,7,8a10.69,10.69,0,0,1-.11,1.44Zm9.05-2.22c0-2-.8-5-4.28-5-3.12,0-4.49,2.87-4.74,5Z" transform="translate(-47 -381.61)"/><path class="cls-1" d="M617,578.38c0-2,0-3.72-.14-5.3h2.7l.11,3.34h.14a5.08,5.08,0,0,1,4.7-3.72,3.38,3.38,0,0,1,.88.1v2.91a4.68,4.68,0,0,0-1-.1c-2.18,0-3.72,1.65-4.15,4a8.9,8.9,0,0,0-.14,1.44v9.06H617Z" transform="translate(-47 -381.61)"/><path class="cls-1" d="M628.08,586.91a8.1,8.1,0,0,0,4.08,1.23c2.24,0,3.3-1.13,3.3-2.53s-.88-2.28-3.16-3.12c-3.06-1.09-4.5-2.78-4.5-4.81,0-2.74,2.22-5,5.87-5a8.51,8.51,0,0,1,4.17,1l-.77,2.24a6.65,6.65,0,0,0-3.48-1c-1.82,0-2.84,1-2.84,2.32s1,2,3.23,2.88c2.95,1.12,4.46,2.59,4.46,5.12,0,3-2.32,5.09-6.35,5.09a9.76,9.76,0,0,1-4.78-1.16Z" transform="translate(-47 -381.61)"/><path class="cls-1" d="M657.78,581.43c0,6.29-4.36,9-8.46,9-4.6,0-8.14-3.37-8.14-8.74,0-5.68,3.72-9,8.42-9C654.48,572.7,657.78,576.24,657.78,581.43Zm-13.48.18c0,3.72,2.14,6.53,5.16,6.53s5.16-2.78,5.16-6.6c0-2.88-1.44-6.53-5.09-6.53S644.3,578.38,644.3,581.61Z" transform="translate(-47 -381.61)"/><path class="cls-1" d="M661.67,577.68c0-1.76,0-3.19-.14-4.6h2.74l.17,2.81h.07a6.25,6.25,0,0,1,5.62-3.19c2.35,0,6,1.4,6,7.22v10.15H673v-9.79c0-2.74-1-5-3.93-5a4.53,4.53,0,0,0-4.35,4.59v10.22h-3.09Z" transform="translate(-47 -381.61)"/><path class="cls-1" d="M681.15,577.68c0-1.76,0-3.19-.14-4.6h2.73l.18,2.81H684a6.23,6.23,0,0,1,5.61-3.19c2.36,0,6,1.4,6,7.22v10.15h-3.09v-9.79c0-2.74-1-5-3.93-5a4.53,4.53,0,0,0-4.35,4.59v10.22h-3.09Z" transform="translate(-47 -381.61)"/><path class="cls-1" d="M702.34,582.14c.07,4.17,2.74,5.89,5.83,5.89a11,11,0,0,0,4.7-.88l.53,2.22a13.81,13.81,0,0,1-5.65,1c-5.23,0-8.35-3.44-8.35-8.56s3-9.16,8-9.16c5.55,0,7,4.87,7,8a13.18,13.18,0,0,1-.1,1.44Zm9.06-2.22c0-2-.81-5-4.28-5-3.13,0-4.5,2.87-4.74,5Z" transform="translate(-47 -381.61)"/><path class="cls-1" d="M717.78,586.91a8.1,8.1,0,0,0,4.08,1.23c2.24,0,3.29-1.13,3.29-2.53s-.87-2.28-3.15-3.12c-3.06-1.09-4.5-2.78-4.5-4.81,0-2.74,2.21-5,5.86-5a8.52,8.52,0,0,1,4.18,1l-.77,2.24a6.65,6.65,0,0,0-3.48-1c-1.82,0-2.84,1-2.84,2.32s1,2,3.23,2.88c3,1.12,4.46,2.59,4.46,5.12,0,3-2.32,5.09-6.35,5.09a9.73,9.73,0,0,1-4.78-1.16Z" transform="translate(-47 -381.61)"/><path class="cls-1" d="M749,590.07l-.25-2.14h-.1a6.35,6.35,0,0,1-5.2,2.52,4.83,4.83,0,0,1-5.19-4.87c0-4.11,3.65-6.36,10.21-6.32v-.35c0-1.41-.38-3.93-3.86-3.93a8.46,8.46,0,0,0-4.42,1.26l-.7-2a10.55,10.55,0,0,1,5.58-1.5c5.19,0,6.45,3.54,6.45,6.94V586a23,23,0,0,0,.29,4.07Zm-.46-8.67c-3.37-.07-7.19.53-7.19,3.82a2.73,2.73,0,0,0,2.91,2.95,4.23,4.23,0,0,0,4.11-2.84,3.42,3.42,0,0,0,.17-1Z" transform="translate(-47 -381.61)"/><path class="cls-1" d="M771.09,573.08c-.07,1.23-.14,2.6-.14,4.67v9.86c0,3.9-.77,6.28-2.42,7.76a9,9,0,0,1-6.18,2,11,11,0,0,1-5.65-1.4l.78-2.35a9.56,9.56,0,0,0,5,1.33c3.16,0,5.47-1.65,5.47-5.93v-1.9h-.07a6.05,6.05,0,0,1-5.4,2.85c-4.21,0-7.23-3.58-7.23-8.29,0-5.75,3.75-9,7.65-9a5.65,5.65,0,0,1,5.3,2.94h.07l.14-2.56Zm-3.19,6.7a4.53,4.53,0,0,0-4.49-4.66c-2.95,0-5.06,2.49-5.06,6.42,0,3.33,1.69,6.11,5,6.11a4.51,4.51,0,0,0,4.28-3.16,5.29,5.29,0,0,0,.25-1.65Z" transform="translate(-47 -381.61)"/><path class="cls-1" d="M777.79,582.14c.07,4.17,2.74,5.89,5.83,5.89a11,11,0,0,0,4.7-.88l.53,2.22a13.81,13.81,0,0,1-5.65,1c-5.23,0-8.35-3.44-8.35-8.56s3-9.16,8-9.16c5.55,0,7,4.87,7,8a13.18,13.18,0,0,1-.1,1.44Zm9.06-2.22c0-2-.81-5-4.28-5-3.13,0-4.49,2.87-4.74,5Zm.74-14.17-4.29,5h-2.21l3.09-5Z" transform="translate(-47 -381.61)"/><path class="cls-1" d="M795.38,582.14c.07,4.17,2.73,5.89,5.82,5.89a11.07,11.07,0,0,0,4.71-.88l.52,2.22a13.81,13.81,0,0,1-5.65,1c-5.23,0-8.35-3.44-8.35-8.56s3-9.16,8-9.16c5.55,0,7,4.87,7,8a13.18,13.18,0,0,1-.1,1.44Zm9-2.22c0-2-.81-5-4.28-5-3.12,0-4.49,2.87-4.74,5Z" transform="translate(-47 -381.61)"/><path class="cls-1" d="M810.82,586.91a8,8,0,0,0,4.07,1.23c2.24,0,3.3-1.13,3.3-2.53s-.88-2.28-3.16-3.12c-3-1.09-4.49-2.78-4.49-4.81,0-2.74,2.21-5,5.86-5a8.45,8.45,0,0,1,4.17,1L819.8,576a6.61,6.61,0,0,0-3.47-1c-1.83,0-2.85,1-2.85,2.32s1,2,3.23,2.88c2.95,1.12,4.46,2.59,4.46,5.12,0,3-2.32,5.09-6.35,5.09a9.69,9.69,0,0,1-4.77-1.16Z" transform="translate(-47 -381.61)"/><text class="cls-2" transform="translate(110.47 185.96)"><tspan class="cls-3">L</tspan><tspan x="5.5" y="0">o</tspan><tspan class="cls-4" x="12.08" y="0">r</tspan><tspan class="cls-5" x="15.89" y="0">em ipsum</tspan></text><text class="cls-2" transform="translate(51.51 206.37)"><tspan class="cls-3">L</tspan><tspan x="5.5" y="0">o</tspan><tspan class="cls-4" x="12.08" y="0">r</tspan><tspan class="cls-5" x="15.89" y="0">em ipsum</tspan></text></svg>